<svg xmlns="http://www.w3.org/2000/svg" width="375" viewBox="0 0 375 225" height="225" version="1.0"><defs><clipPath id="a"><path d="M 5 1 L 197.25 1 L 197.25 216 L 5 216 Z M 5 1"/></clipPath></defs><path fill="#D8AE6A" d="M 52.242188 106.683594 C 41.929688 82.566406 31.570312 69.210938 31.464844 69.066406 C 31.335938 68.894531 31.273438 68.707031 31.273438 68.492188 L 31.445312 58.953125 C 31.445312 58.953125 31.445312 58.917969 31.445312 58.898438 C 31.441406 58.859375 31.441406 58.820312 31.445312 58.78125 C 31.441406 58.757812 31.441406 58.730469 31.445312 58.707031 C 31.453125 58.675781 31.460938 58.644531 31.472656 58.617188 C 31.472656 58.59375 31.496094 58.574219 31.507812 58.546875 L 31.554688 58.464844 L 31.59375 58.410156 C 31.617188 58.386719 31.640625 58.355469 31.664062 58.328125 L 31.714844 58.289062 L 31.800781 58.21875 L 31.867188 58.183594 C 31.886719 58.167969 31.914062 58.15625 31.9375 58.144531 L 41.1875 54.09375 C 40.902344 53.640625 40.582031 53.214844 40.222656 52.816406 C 37.03125 49.234375 31.265625 47.753906 25.589844 52.523438 C 18.828125 58.234375 25.136719 70.945312 31.816406 84.410156 C 35.40625 91.640625 39.121094 99.121094 40.773438 105.671875 C 48.863281 137.917969 49.804688 162.316406 43.644531 180.179688 C 47.644531 179.546875 59.207031 177.40625 70.558594 172.574219 C 67.304688 149.816406 61.199219 127.851562 52.242188 106.683594 Z M 52.242188 106.683594"/><path fill="#BC8C46" d="M 42.03125 55.695312 L 33.558594 59.40625 C 34.148438 60.480469 35.390625 62.320312 37.109375 62.6875 C 38.34375 62.945312 39.71875 62.386719 41.136719 61.015625 C 42.558594 59.648438 42.726562 57.597656 42.03125 55.695312 Z M 42.03125 55.695312"/><path fill="#BC8C46" d="M 122.4375 203.15625 C 100.875 206.570312 85.058594 204.859375 84.902344 204.84375 C 84.691406 204.824219 84.511719 204.742188 84.359375 204.589844 C 84.210938 204.441406 84.125 204.261719 84.109375 204.050781 C 78.339844 150.84375 65.496094 115.691406 55.738281 95.554688 C 45.167969 73.769531 35.84375 64.417969 35.75 64.328125 C 35.664062 64.238281 35.597656 64.132812 35.554688 64.015625 C 34.625 63.523438 33.835938 62.867188 33.183594 62.039062 L 33.074219 68.203125 C 34.5625 70.179688 44.269531 83.453125 53.890625 105.960938 C 62.96875 127.421875 69.136719 149.695312 72.390625 172.773438 C 72.449219 172.914062 72.472656 173.058594 72.457031 173.210938 C 74.214844 185.605469 75.144531 198.0625 75.246094 210.582031 C 78.199219 211.347656 91.304688 214.335938 110.15625 212.519531 C 126.257812 210.96875 149.371094 205.550781 174.761719 189.523438 C 163.03125 195.820312 150.769531 200.808594 137.980469 204.484375 C 129.859375 206.8125 121.601562 208.457031 113.207031 209.417969 C 93.191406 211.640625 81.160156 208.699219 80.652344 208.574219 C 80.472656 208.527344 80.320312 208.433594 80.195312 208.289062 C 80.070312 208.148438 80 207.984375 79.980469 207.796875 L 76.933594 178.992188 C 76.90625 178.746094 76.972656 178.527344 77.128906 178.332031 C 77.28125 178.140625 77.484375 178.03125 77.730469 178.003906 C 77.976562 177.976562 78.195312 178.042969 78.386719 178.199219 C 78.582031 178.351562 78.691406 178.554688 78.71875 178.800781 L 81.699219 206.964844 C 84.386719 207.523438 95.867188 209.550781 113.105469 207.617188 C 131.21875 205.589844 159.566406 198.65625 191.898438 177.191406 C 191.816406 176.644531 191.667969 175.703125 191.460938 174.414062 C 175 187.046875 157.371094 194.496094 141.9375 198.871094 C 135.523438 200.683594 129.023438 202.113281 122.4375 203.15625 Z M 122.4375 203.15625"/><path fill="#F7D08A" d="M 52.324219 51.402344 C 53.28125 55.683594 52.65625 59.035156 50.472656 61.359375 C 60.789062 59.183594 94.925781 51.339844 132.785156 35.148438 C 133.015625 35.046875 133.246094 34.9375 133.46875 34.820312 C 133.597656 34.691406 133.753906 34.605469 133.9375 34.570312 C 135.328125 33.746094 136.507812 32.6875 137.480469 31.398438 C 138.453125 30.105469 139.140625 28.679688 139.550781 27.113281 C 140.691406 22.871094 141.34375 16.65625 138.007812 11.273438 C 134.199219 5.109375 126.582031 2.265625 119.449219 4.285156 L 119.34375 4.320312 L 31.675781 29.796875 C 32.253906 29.894531 32.808594 30.015625 33.335938 30.152344 C 43.269531 32.738281 50.40625 42.800781 52.324219 51.402344 Z M 52.324219 51.402344"/><path fill="#D8AE6A" d="M 39.03125 106.113281 C 37.433594 99.742188 33.765625 92.355469 30.21875 85.199219 C 23.214844 71.089844 16.601562 57.75 24.484375 51.132812 C 31.082031 45.59375 37.839844 47.378906 41.617188 51.605469 C 44.816406 55.1875 45.136719 59.691406 42.382812 62.316406 C 42.125 62.558594 41.863281 62.78125 41.609375 62.992188 C 44.21875 62.808594 47.292969 62.117188 49.171875 60.132812 C 50.910156 58.265625 51.402344 55.457031 50.582031 51.785156 C 48.773438 43.722656 42.121094 34.304688 32.886719 31.890625 C 25.925781 30.085938 19.015625 32.796875 12.835938 39.730469 C 2.433594 51.410156 10.800781 69.132812 19.660156 87.894531 C 24.964844 99.136719 30.453125 110.753906 32.363281 121.910156 C 36.753906 147.492188 26.992188 168.390625 24.015625 173.996094 C 27.824219 173.703125 37.464844 172.753906 44.378906 170.269531 C 47.46875 153.824219 45.691406 132.6875 39.03125 106.113281 Z M 39.03125 106.113281"/><path fill="#F7D08A" d="M 134.054688 36.539062 C 133.867188 36.628906 133.679688 36.722656 133.488281 36.800781 C 115.40625 44.488281 96.910156 51 78 56.335938 C 59.808594 61.496094 47.839844 63.746094 47.621094 63.765625 C 47.40625 63.804688 47.207031 63.765625 47.015625 63.65625 C 44.136719 64.828125 40.816406 64.929688 38.628906 64.820312 C 41.773438 68.4375 49.09375 77.78125 57.296875 94.664062 C 67.089844 114.835938 79.96875 150 85.808594 203.125 C 89.101562 203.40625 103.445312 204.347656 122.214844 201.382812 C 141.773438 198.285156 170.257812 190.171875 195.144531 169.140625 C 192.132812 151.015625 187.78125 133.21875 182.089844 115.75 C 173.492188 89.449219 158.160156 54.445312 134.054688 36.539062 Z M 155.144531 137.664062 C 153.753906 142.605469 150.628906 146.445312 145.855469 149.074219 C 143.765625 150.257812 141.566406 151.1875 139.261719 151.863281 C 134.609375 153.171875 130.414062 152.878906 126.730469 150.945312 C 115.03125 144.792969 112.859375 124.507812 112.769531 123.648438 C 112.75 123.441406 112.792969 123.25 112.90625 123.074219 C 113.015625 122.902344 113.167969 122.777344 113.363281 122.710938 L 148.972656 109.960938 C 149.175781 109.886719 149.382812 109.890625 149.585938 109.964844 C 149.789062 110.039062 149.945312 110.171875 150.054688 110.363281 C 150.402344 110.988281 158.566406 125.507812 155.144531 137.664062 Z M 155.144531 137.664062"/><path fill="#472700" d="M 114.640625 124.160156 C 115.128906 127.753906 117.875 144.261719 127.570312 149.355469 C 132.355469 151.863281 138.207031 151.242188 144.976562 147.503906 C 149.328125 145.113281 152.148438 141.640625 153.402344 137.183594 C 156.226562 127.164062 150.355469 114.871094 148.835938 111.914062 Z M 114.640625 124.160156"/><path fill="#231F20" d="M 164.648438 70.605469 C 155.988281 55.320312 146.265625 43.542969 135.730469 35.554688 C 137.097656 34.59375 138.257812 33.429688 139.210938 32.058594 C 140.167969 30.6875 140.859375 29.195312 141.289062 27.578125 C 142.519531 22.992188 143.210938 16.273438 139.550781 10.328125 C 135.304688 3.5 126.867188 0.316406 118.964844 2.5625 L 118.839844 2.589844 L 24.007812 30.15625 L 23.917969 30.191406 C 20.085938 31.226562 15.835938 33.675781 11.5 38.535156 C 0.300781 51.101562 8.917969 69.347656 18.027344 88.667969 C 23.28125 99.796875 28.714844 111.304688 30.585938 122.21875 C 35.59375 151.378906 21.804688 174.304688 21.664062 174.53125 C 21.464844 174.84375 21.457031 175.160156 21.652344 175.480469 C 21.84375 175.800781 22.125 175.945312 22.496094 175.910156 C 23.027344 175.886719 35.066406 175.253906 43.988281 172.320312 C 43.355469 175.273438 42.515625 178.164062 41.464844 180.996094 C 41.410156 181.144531 41.394531 181.292969 41.421875 181.449219 C 41.445312 181.605469 41.507812 181.742188 41.601562 181.867188 C 41.699219 181.988281 41.820312 182.082031 41.964844 182.140625 C 42.113281 182.203125 42.261719 182.222656 42.417969 182.203125 C 47.804688 181.410156 53.113281 180.261719 58.347656 178.757812 C 62.597656 177.5625 66.761719 176.121094 70.835938 174.425781 C 72.527344 186.652344 73.40625 198.9375 73.472656 211.28125 C 73.472656 211.484375 73.53125 211.664062 73.648438 211.824219 C 73.765625 211.988281 73.921875 212.097656 74.113281 212.15625 C 74.253906 212.199219 88.519531 216.425781 110.253906 214.332031 C 118.433594 213.535156 126.476562 212.003906 134.378906 209.746094 C 151.632812 204.855469 172.15625 195.570312 193.457031 178.347656 L 193.480469 178.316406 C 193.519531 178.285156 193.554688 178.246094 193.585938 178.207031 L 193.625 178.160156 C 193.664062 178.105469 193.699219 178.042969 193.726562 177.980469 C 193.722656 177.972656 193.722656 177.960938 193.726562 177.949219 C 193.742188 177.894531 193.753906 177.839844 193.765625 177.78125 C 193.765625 177.757812 193.765625 177.738281 193.765625 177.714844 C 193.769531 177.664062 193.769531 177.609375 193.765625 177.558594 C 193.765625 177.558594 193.765625 177.53125 193.765625 177.519531 C 193.765625 177.507812 193.539062 175.929688 193.078125 173.160156 C 194.289062 172.199219 195.496094 171.210938 196.699219 170.191406 C 196.945312 169.972656 197.039062 169.699219 196.988281 169.375 C 193.976562 150.984375 189.582031 132.933594 183.804688 115.21875 C 178.238281 98.226562 171.792969 83.214844 164.648438 70.605469 Z M 119.34375 4.320312 L 119.449219 4.285156 C 126.582031 2.265625 134.199219 5.128906 137.996094 11.257812 C 141.328125 16.65625 140.675781 22.851562 139.535156 27.097656 C 139.132812 28.664062 138.445312 30.09375 137.476562 31.386719 C 136.503906 32.679688 135.324219 33.742188 133.9375 34.570312 C 133.753906 34.605469 133.597656 34.691406 133.46875 34.820312 C 133.246094 34.9375 133.03125 35.046875 132.785156 35.148438 C 94.925781 51.351562 60.789062 59.195312 50.472656 61.359375 C 52.648438 59.035156 53.28125 55.695312 52.324219 51.402344 C 50.40625 42.800781 43.269531 32.738281 33.335938 30.152344 C 32.808594 30.015625 32.253906 29.894531 31.675781 29.796875 Z M 24.015625 173.996094 C 26.992188 168.390625 36.753906 147.492188 32.363281 121.910156 C 30.453125 110.753906 24.964844 99.136719 19.660156 87.894531 C 10.800781 69.132812 2.433594 51.410156 12.835938 39.726562 C 19.015625 32.796875 25.949219 30.085938 32.886719 31.882812 C 42.121094 34.304688 48.773438 43.722656 50.570312 51.789062 C 51.394531 55.460938 50.914062 58.273438 49.164062 60.136719 C 47.300781 62.128906 44.253906 62.8125 41.597656 62.996094 C 41.855469 62.785156 42.117188 62.558594 42.375 62.320312 C 45.128906 59.707031 44.804688 55.191406 41.609375 51.609375 C 37.832031 47.382812 31.074219 45.597656 24.476562 51.140625 C 16.59375 57.765625 23.207031 71.09375 30.210938 85.203125 C 33.757812 92.355469 37.425781 99.742188 39.023438 106.117188 C 45.691406 132.695312 47.46875 153.828125 44.378906 170.273438 C 37.464844 172.753906 27.824219 173.703125 24.015625 173.996094 Z M 37.109375 62.6875 C 35.367188 62.320312 34.148438 60.480469 33.558594 59.40625 L 42.03125 55.695312 C 42.726562 57.597656 42.621094 59.617188 41.160156 61.015625 C 39.699219 62.414062 38.34375 62.945312 37.109375 62.6875 Z M 43.636719 180.1875 C 49.796875 162.320312 48.859375 137.921875 40.765625 105.679688 C 39.121094 99.140625 35.40625 91.644531 31.816406 84.410156 C 25.136719 70.945312 18.828125 58.234375 25.632812 52.515625 C 31.292969 47.722656 37.074219 49.226562 40.269531 52.808594 C 40.625 53.207031 40.945312 53.632812 41.230469 54.085938 L 31.984375 58.136719 C 31.957031 58.144531 31.933594 58.160156 31.910156 58.175781 L 31.84375 58.210938 L 31.757812 58.28125 L 31.707031 58.320312 C 31.683594 58.347656 31.660156 58.375 31.640625 58.402344 L 31.601562 58.453125 L 31.550781 58.539062 C 31.550781 58.5625 31.527344 58.585938 31.515625 58.605469 C 31.503906 58.636719 31.496094 58.667969 31.488281 58.699219 C 31.484375 58.722656 31.484375 58.75 31.488281 58.773438 C 31.484375 58.8125 31.484375 58.851562 31.488281 58.890625 C 31.488281 58.890625 31.488281 58.925781 31.488281 58.941406 L 31.316406 68.484375 C 31.316406 68.695312 31.378906 68.886719 31.507812 69.054688 C 31.613281 69.1875 41.953125 82.5625 52.285156 106.675781 C 61.242188 127.84375 67.34375 149.808594 70.59375 172.570312 C 59.195312 177.410156 47.636719 179.550781 43.636719 180.1875 Z M 191.898438 177.191406 C 159.566406 198.65625 131.21875 205.589844 113.105469 207.613281 C 95.867188 209.542969 84.386719 207.519531 81.699219 206.960938 L 78.71875 178.796875 C 78.691406 178.550781 78.582031 178.347656 78.386719 178.191406 C 78.195312 178.039062 77.976562 177.972656 77.730469 178 C 77.484375 178.027344 77.28125 178.136719 77.128906 178.328125 C 76.972656 178.523438 76.90625 178.742188 76.933594 178.988281 L 79.980469 207.792969 C 80 207.980469 80.070312 208.144531 80.195312 208.285156 C 80.320312 208.429688 80.472656 208.523438 80.652344 208.570312 C 81.160156 208.695312 93.199219 211.617188 113.207031 209.414062 C 121.601562 208.453125 129.859375 206.808594 137.980469 204.480469 C 150.769531 200.804688 163.03125 195.816406 174.761719 189.519531 C 149.371094 205.539062 126.261719 210.964844 110.15625 212.511719 C 91.304688 214.328125 78.199219 211.339844 75.246094 210.574219 C 75.144531 198.054688 74.214844 185.597656 72.457031 173.203125 C 72.472656 173.050781 72.449219 172.90625 72.390625 172.765625 C 69.136719 149.691406 62.96875 127.425781 53.890625 105.964844 C 44.253906 83.476562 34.5625 70.191406 33.074219 68.214844 L 33.183594 62.054688 C 33.832031 62.878906 34.621094 63.539062 35.550781 64.027344 C 35.59375 64.144531 35.660156 64.25 35.746094 64.339844 C 35.839844 64.433594 45.164062 73.773438 55.734375 95.570312 C 65.492188 115.691406 78.335938 150.84375 84.105469 204.0625 C 84.121094 204.273438 84.207031 204.453125 84.355469 204.605469 C 84.503906 204.753906 84.6875 204.839844 84.894531 204.855469 C 85.054688 204.855469 100.871094 206.597656 122.429688 203.171875 C 129.015625 202.128906 135.515625 200.699219 141.929688 198.882812 C 157.359375 194.523438 175 187.0625 191.453125 174.425781 C 191.667969 175.703125 191.816406 176.644531 191.898438 177.191406 Z M 195.144531 169.140625 C 170.257812 190.160156 141.773438 198.273438 122.214844 201.382812 C 103.445312 204.359375 89.101562 203.417969 85.808594 203.125 C 79.96875 149.996094 67.097656 114.835938 57.296875 94.664062 C 49.09375 77.78125 41.773438 68.4375 38.628906 64.804688 C 40.804688 64.910156 44.136719 64.804688 47.015625 63.640625 C 47.207031 63.75 47.40625 63.785156 47.621094 63.75 C 47.839844 63.707031 59.804688 61.480469 78 56.320312 C 96.90625 50.988281 115.40625 44.480469 133.488281 36.800781 C 133.679688 36.722656 133.867188 36.628906 134.054688 36.539062 C 158.160156 54.445312 173.472656 89.449219 182.089844 115.75 C 187.78125 133.21875 192.132812 151.015625 195.144531 169.140625 Z M 195.144531 169.140625"/><path fill="#231F20" d="M 148.972656 109.960938 L 113.363281 122.710938 C 113.167969 122.777344 113.015625 122.902344 112.90625 123.074219 C 112.792969 123.25 112.75 123.441406 112.769531 123.648438 C 112.859375 124.519531 115.03125 144.792969 126.730469 150.945312 C 130.414062 152.878906 134.609375 153.183594 139.261719 151.863281 C 141.566406 151.1875 143.765625 150.257812 145.855469 149.074219 C 150.640625 146.460938 153.753906 142.605469 155.144531 137.664062 C 158.566406 125.507812 150.402344 110.972656 150.054688 110.363281 C 149.945312 110.171875 149.789062 110.039062 149.585938 109.964844 C 149.382812 109.890625 149.175781 109.886719 148.972656 109.960938 Z M 153.414062 137.183594 C 152.160156 141.640625 149.324219 145.113281 144.988281 147.503906 C 138.207031 151.242188 132.347656 151.859375 127.582031 149.355469 C 117.890625 144.261719 115.144531 127.753906 114.65625 124.160156 L 148.863281 111.914062 C 150.378906 114.871094 156.238281 127.15625 153.414062 137.183594 Z M 153.414062 137.183594"/><path fill="#FFF" d="M 117.089844 134.347656 L 152.539062 120.574219 L 148.847656 111.90625 L 114.640625 124.152344 C 114.640625 124.152344 115.757812 132.773438 117.089844 134.347656 Z M 117.089844 134.347656"/><path fill="#C65964" d="M 133.152344 136.578125 C 132.023438 136.898438 130.941406 137.332031 129.90625 137.878906 C 128.867188 138.425781 127.898438 139.074219 126.996094 139.824219 C 126.09375 140.574219 125.28125 141.410156 124.554688 142.332031 C 123.828125 143.253906 123.203125 144.242188 122.683594 145.292969 C 124.042969 146.976562 125.671875 148.335938 127.570312 149.371094 C 132.355469 151.882812 138.207031 151.257812 144.976562 147.519531 C 147.351562 146.25 149.339844 144.53125 150.9375 142.359375 C 150.425781 141.710938 149.867188 141.101562 149.265625 140.53125 C 148.664062 139.964844 148.023438 139.441406 147.34375 138.96875 C 146.664062 138.492188 145.957031 138.074219 145.214844 137.703125 C 144.472656 137.335938 143.710938 137.023438 142.921875 136.765625 C 142.136719 136.511719 141.332031 136.3125 140.515625 136.175781 C 139.699219 136.039062 138.878906 135.960938 138.050781 135.945312 C 137.222656 135.929688 136.398438 135.976562 135.578125 136.082031 C 134.757812 136.1875 133.949219 136.351562 133.152344 136.578125 Z M 133.152344 136.578125"/><path fill="#E57F86" d="M 144.988281 147.503906 C 147.359375 146.238281 149.339844 144.523438 150.9375 142.359375 C 150.4375 141.726562 149.894531 141.128906 149.304688 140.574219 C 148.816406 140.257812 148.316406 139.96875 147.796875 139.707031 C 147.277344 139.441406 146.746094 139.210938 146.199219 139.003906 C 145.65625 138.800781 145.101562 138.625 144.539062 138.480469 C 143.972656 138.339844 143.40625 138.226562 142.828125 138.144531 C 142.253906 138.058594 141.675781 138.007812 141.09375 137.992188 C 140.511719 137.972656 139.929688 137.984375 139.351562 138.027344 C 138.769531 138.070312 138.195312 138.148438 137.625 138.253906 C 137.050781 138.359375 136.488281 138.496094 135.929688 138.664062 C 135.375 138.832031 134.828125 139.03125 134.292969 139.257812 C 133.757812 139.484375 133.234375 139.742188 132.726562 140.027344 C 132.21875 140.308594 131.730469 140.621094 131.253906 140.957031 C 130.78125 141.296875 130.328125 141.65625 129.890625 142.046875 C 129.457031 142.433594 129.046875 142.839844 128.65625 143.273438 C 128.265625 143.707031 127.898438 144.15625 127.558594 144.628906 C 127.21875 145.101562 126.902344 145.589844 126.613281 146.09375 C 126.324219 146.601562 126.066406 147.121094 125.835938 147.65625 C 126.222656 148.144531 126.625 148.613281 127.042969 149.058594 C 127.21875 149.160156 127.390625 149.261719 127.570312 149.355469 C 132.347656 151.863281 138.207031 151.242188 144.988281 147.503906 Z M 144.988281 147.503906"/><path fill="#D8AE6A" d="M 66.148438 58.921875 C 54.691406 61.847656 47.628906 63.164062 47.460938 63.195312 C 47.246094 63.234375 47.042969 63.199219 46.855469 63.085938 C 43.976562 64.261719 40.65625 64.363281 38.464844 64.253906 C 41.613281 67.867188 48.910156 77.210938 57.132812 94.097656 C 66.933594 114.265625 79.808594 149.433594 85.648438 202.554688 C 88.9375 202.839844 103.285156 203.78125 122.054688 200.8125 C 141.613281 197.710938 170.097656 189.601562 194.984375 168.570312 C 194.78125 167.261719 194.164062 163.46875 193.058594 157.90625 C 179.078125 182.589844 101.324219 197.121094 96.894531 173.480469 C 92.164062 148.207031 72.902344 97.179688 62.660156 80.914062 C 53.25 65.964844 66.148438 58.921875 66.148438 58.921875 Z M 66.148438 58.921875"/><path fill="#FFE3B6" d="M 193.253906 158.652344 C 190.382812 144.132812 186.660156 129.832031 182.089844 115.75 C 173.472656 89.449219 158.15625 54.445312 134.054688 36.539062 C 133.867188 36.628906 133.679688 36.722656 133.488281 36.800781 C 126.378906 39.847656 119.398438 42.59375 112.683594 45.078125 C 112.683594 45.078125 131.570312 40.246094 145.144531 54.933594 C 158.402344 69.269531 184.117188 122.53125 193.058594 157.925781 C 193.125 158.164062 193.191406 158.410156 193.253906 158.652344 Z M 193.253906 158.652344"/><path fill="#BC8C46" d="M 33.628906 32.125 C 3.394531 45.445312 16.769531 66.546875 26.1875 83.003906 C 35.730469 99.660156 42.902344 123.910156 42.902344 123.910156 C 41.878906 118.265625 40.589844 112.335938 39.03125 106.113281 C 37.433594 99.742188 33.765625 92.355469 30.21875 85.199219 C 23.214844 71.089844 16.601562 57.75 24.484375 51.132812 C 31.082031 45.59375 37.839844 47.378906 41.617188 51.605469 C 44.816406 55.1875 45.136719 59.691406 42.382812 62.316406 C 42.125 62.558594 41.863281 62.78125 41.609375 62.992188 C 44.21875 62.808594 47.292969 62.117188 49.171875 60.132812 C 50.910156 58.265625 51.402344 55.457031 50.582031 51.785156 C 48.824219 43.941406 42.472656 34.808594 33.628906 32.125 Z M 33.628906 32.125"/><path fill="#BC8C46" d="M 70.550781 172.578125 C 67.300781 149.820312 61.199219 127.855469 52.242188 106.683594 C 41.929688 82.566406 31.570312 69.210938 31.464844 69.066406 C 31.464844 69.066406 66.851562 137.75 64.191406 175.019531 C 66.285156 174.292969 68.421875 173.484375 70.550781 172.578125 Z M 70.550781 172.578125"/><path fill="#BC8C46" d="M 31.445312 58.953125 C 31.445312 58.953125 31.445312 58.917969 31.445312 58.898438 C 31.441406 58.859375 31.441406 58.820312 31.445312 58.78125 C 31.441406 58.757812 31.441406 58.730469 31.445312 58.707031 C 31.453125 58.675781 31.460938 58.644531 31.472656 58.617188 C 31.472656 58.59375 31.496094 58.574219 31.507812 58.546875 L 31.554688 58.464844 L 31.59375 58.410156 C 31.617188 58.386719 31.640625 58.355469 31.664062 58.328125 L 31.714844 58.289062 L 31.800781 58.21875 L 31.867188 58.183594 C 31.886719 58.167969 31.914062 58.15625 31.9375 58.144531 L 41.1875 54.09375 C 40.902344 53.640625 40.582031 53.214844 40.222656 52.816406 C 39.722656 52.238281 39.164062 51.726562 38.539062 51.285156 C 37.917969 50.839844 37.253906 50.476562 36.542969 50.191406 C 35.832031 49.910156 35.101562 49.714844 34.34375 49.605469 C 33.589844 49.496094 32.832031 49.480469 32.070312 49.554688 C 23.167969 52.574219 24.390625 63.878906 29.023438 69.757812 C 33.660156 75.636719 40.253906 87.621094 40.253906 87.621094 L 43.273438 88.058594 C 36.65625 75.777344 31.527344 69.15625 31.457031 69.066406 C 31.328125 68.894531 31.265625 68.707031 31.265625 68.492188 Z M 31.445312 58.953125"/><path fill="#FFE3B6" d="M 62.195312 175.6875 C 54.042969 178.101562 48.269531 175.796875 48.269531 175.796875 C 53.902344 156.804688 44.824219 124.382812 44.824219 124.382812 C 48.957031 147.582031 48.5625 165.96875 43.652344 180.199219 C 49.945312 179.160156 56.128906 177.65625 62.195312 175.6875 Z M 62.195312 175.6875"/><path fill="#FFE3B6" d="M 29.796875 169.375 C 39.605469 149.921875 31.609375 118.226562 31.609375 118.226562 C 31.898438 119.457031 32.15625 120.679688 32.367188 121.898438 C 36.753906 147.492188 26.992188 168.390625 24.015625 173.996094 C 27.824219 173.703125 37.464844 172.753906 44.378906 170.269531 C 44.574219 169.242188 44.75 168.195312 44.902344 167.132812 C 36.316406 171.328125 29.796875 169.375 29.796875 169.375 Z M 29.796875 169.375"/><path fill="#D8AE6A" d="M 130.289062 4.84375 C 135.546875 7.226562 146.210938 16.273438 132.445312 27.066406 C 116.84375 39.289062 52.324219 51.410156 52.324219 51.410156 C 53.28125 55.691406 52.65625 59.042969 50.472656 61.371094 C 60.789062 59.191406 94.925781 51.347656 132.785156 35.15625 C 133.015625 35.058594 133.246094 34.949219 133.46875 34.828125 C 133.597656 34.699219 133.753906 34.613281 133.9375 34.578125 C 135.328125 33.753906 136.507812 32.695312 137.480469 31.402344 C 138.453125 30.109375 139.144531 28.679688 139.550781 27.113281 C 140.691406 22.871094 141.34375 16.65625 138.007812 11.273438 C 137.101562 9.816406 135.988281 8.535156 134.667969 7.4375 C 133.347656 6.335938 131.886719 5.472656 130.289062 4.84375 Z M 130.289062 4.84375"/><path fill="#D8AE6A" d="M 128.546875 4.238281 L 128.1875 4.140625 C 128.300781 4.195312 128.421875 4.226562 128.546875 4.238281 Z M 128.546875 4.238281"/><path fill="#FFE3B6" d="M 138.816406 13.6875 C 139.0625 14.105469 139.335938 14.507812 139.632812 14.890625 C 139.238281 13.617188 138.695312 12.410156 137.996094 11.273438 C 134.199219 5.109375 126.582031 2.265625 119.449219 4.285156 L 119.34375 4.320312 L 32.289062 29.617188 L 34.609375 30.535156 C 35.335938 30.773438 36.042969 31.050781 36.734375 31.371094 L 122.210938 7.136719 C 122.210938 7.136719 133.152344 4.269531 138.816406 13.6875 Z M 138.816406 13.6875"/><path fill="#FFE3B6" d="M 128.21875 6.589844 C 128.285156 6.824219 128.265625 7.082031 128.15625 7.363281 C 128.046875 7.644531 127.851562 7.941406 127.570312 8.257812 C 127.292969 8.574219 126.929688 8.898438 126.488281 9.234375 C 126.050781 9.570312 125.535156 9.910156 124.953125 10.257812 C 124.367188 10.601562 123.722656 10.945312 123.015625 11.285156 C 122.3125 11.625 121.558594 11.957031 120.757812 12.28125 C 119.957031 12.601562 119.128906 12.910156 118.265625 13.203125 C 117.402344 13.496094 116.523438 13.769531 115.628906 14.019531 C 114.738281 14.273438 113.847656 14.496094 112.957031 14.699219 C 112.070312 14.898438 111.199219 15.070312 110.347656 15.210938 C 109.496094 15.355469 108.683594 15.464844 107.902344 15.542969 C 107.125 15.617188 106.394531 15.664062 105.714844 15.671875 C 105.039062 15.683594 104.421875 15.660156 103.871094 15.605469 C 103.320312 15.546875 102.84375 15.457031 102.441406 15.335938 C 102.035156 15.214844 101.714844 15.0625 101.476562 14.878906 C 101.238281 14.695312 101.082031 14.484375 101.015625 14.25 C 100.949219 14.011719 100.972656 13.753906 101.082031 13.472656 C 101.191406 13.191406 101.386719 12.894531 101.664062 12.578125 C 101.945312 12.265625 102.304688 11.9375 102.746094 11.601562 C 103.1875 11.265625 103.703125 10.925781 104.285156 10.582031 C 104.871094 10.234375 105.515625 9.894531 106.222656 9.550781 C 106.925781 9.210938 107.679688 8.878906 108.480469 8.558594 C 109.277344 8.234375 110.109375 7.925781 110.972656 7.632812 C 111.835938 7.339844 112.714844 7.070312 113.605469 6.816406 C 114.5 6.566406 115.390625 6.339844 116.28125 6.140625 C 117.167969 5.9375 118.039062 5.765625 118.890625 5.625 C 119.738281 5.484375 120.554688 5.375 121.335938 5.296875 C 122.113281 5.21875 122.84375 5.175781 123.519531 5.164062 C 124.199219 5.152344 124.816406 5.175781 125.367188 5.234375 C 125.917969 5.289062 126.394531 5.378906 126.796875 5.5 C 127.199219 5.625 127.523438 5.777344 127.761719 5.960938 C 128 6.140625 128.152344 6.351562 128.21875 6.589844 Z M 128.21875 6.589844"/><path fill="#FFE3B6" d="M 139.042969 44.082031 C 139.71875 44.433594 140.367188 44.8125 140.992188 45.226562 C 141.613281 45.636719 142.203125 46.074219 142.753906 46.53125 C 143.308594 46.988281 143.8125 47.460938 144.273438 47.949219 C 144.730469 48.433594 145.132812 48.925781 145.480469 49.421875 C 145.828125 49.917969 146.113281 50.410156 146.332031 50.898438 C 146.554688 51.382812 146.710938 51.855469 146.800781 52.316406 C 146.890625 52.773438 146.910156 53.210938 146.863281 53.625 C 146.816406 54.039062 146.699219 54.421875 146.519531 54.773438 C 146.335938 55.125 146.089844 55.4375 145.777344 55.714844 C 145.46875 55.992188 145.101562 56.226562 144.671875 56.417969 C 144.246094 56.609375 143.769531 56.753906 143.246094 56.851562 C 142.71875 56.949219 142.15625 57 141.550781 57 C 140.945312 57.003906 140.3125 56.957031 139.648438 56.859375 C 138.988281 56.765625 138.3125 56.621094 137.621094 56.433594 C 136.929688 56.246094 136.234375 56.011719 135.539062 55.738281 C 134.84375 55.464844 134.160156 55.152344 133.484375 54.800781 C 132.8125 54.453125 132.164062 54.070312 131.539062 53.660156 C 130.914062 53.246094 130.324219 52.8125 129.773438 52.355469 C 129.222656 51.894531 128.714844 51.421875 128.257812 50.9375 C 127.796875 50.449219 127.394531 49.957031 127.050781 49.460938 C 126.703125 48.964844 126.417969 48.472656 126.195312 47.988281 C 125.972656 47.5 125.816406 47.027344 125.726562 46.566406 C 125.640625 46.109375 125.617188 45.671875 125.664062 45.257812 C 125.714844 44.847656 125.828125 44.464844 126.011719 44.109375 C 126.195312 43.757812 126.441406 43.445312 126.75 43.167969 C 127.0625 42.890625 127.429688 42.65625 127.855469 42.464844 C 128.28125 42.273438 128.757812 42.128906 129.28125 42.03125 C 129.808594 41.933594 130.375 41.882812 130.980469 41.882812 C 131.585938 41.882812 132.21875 41.929688 132.878906 42.023438 C 133.539062 42.121094 134.214844 42.261719 134.910156 42.449219 C 135.601562 42.640625 136.292969 42.871094 136.988281 43.144531 C 137.6875 43.421875 138.371094 43.734375 139.042969 44.082031 Z M 139.042969 44.082031"/><path fill="#FFE3B6" d="M 123.464844 51.1875 C 123.464844 51.480469 123.433594 51.769531 123.378906 52.054688 C 123.320312 52.339844 123.238281 52.617188 123.125 52.886719 C 123.011719 53.15625 122.875 53.414062 122.714844 53.65625 C 122.554688 53.898438 122.367188 54.125 122.164062 54.328125 C 121.957031 54.535156 121.734375 54.71875 121.492188 54.882812 C 121.246094 55.042969 120.992188 55.179688 120.722656 55.292969 C 120.453125 55.40625 120.175781 55.488281 119.890625 55.546875 C 119.605469 55.601562 119.316406 55.632812 119.023438 55.632812 C 118.734375 55.632812 118.445312 55.601562 118.160156 55.546875 C 117.871094 55.488281 117.59375 55.40625 117.324219 55.292969 C 117.058594 55.179688 116.800781 55.042969 116.558594 54.882812 C 116.316406 54.71875 116.09375 54.535156 115.886719 54.328125 C 115.679688 54.125 115.496094 53.898438 115.335938 53.65625 C 115.171875 53.414062 115.035156 53.15625 114.925781 52.886719 C 114.8125 52.617188 114.726562 52.339844 114.671875 52.054688 C 114.613281 51.769531 114.585938 51.480469 114.585938 51.1875 C 114.585938 50.894531 114.613281 50.605469 114.671875 50.320312 C 114.726562 50.035156 114.8125 49.753906 114.925781 49.484375 C 115.035156 49.214844 115.171875 48.960938 115.335938 48.71875 C 115.496094 48.476562 115.679688 48.25 115.886719 48.042969 C 116.09375 47.839844 116.316406 47.652344 116.558594 47.492188 C 116.800781 47.328125 117.058594 47.191406 117.324219 47.082031 C 117.59375 46.96875 117.871094 46.886719 118.160156 46.828125 C 118.445312 46.769531 118.734375 46.742188 119.023438 46.742188 C 119.316406 46.742188 119.605469 46.769531 119.890625 46.828125 C 120.175781 46.886719 120.453125 46.96875 120.722656 47.082031 C 120.992188 47.191406 121.246094 47.328125 121.492188 47.492188 C 121.734375 47.652344 121.957031 47.839844 122.164062 48.042969 C 122.367188 48.25 122.554688 48.476562 122.714844 48.71875 C 122.875 48.960938 123.011719 49.214844 123.125 49.484375 C 123.238281 49.753906 123.320312 50.035156 123.378906 50.320312 C 123.433594 50.605469 123.464844 50.894531 123.464844 51.1875 Z M 123.464844 51.1875"/><path fill="#FFE3B6" d="M 101.621094 17.832031 C 101.65625 17.949219 101.65625 18.078125 101.621094 18.210938 C 101.589844 18.347656 101.523438 18.488281 101.425781 18.632812 C 101.332031 18.777344 101.203125 18.929688 101.042969 19.078125 C 100.886719 19.230469 100.699219 19.382812 100.484375 19.535156 C 100.273438 19.683594 100.035156 19.832031 99.773438 19.976562 C 99.515625 20.121094 99.234375 20.261719 98.9375 20.394531 C 98.640625 20.527344 98.332031 20.652344 98.007812 20.769531 C 97.683594 20.886719 97.355469 20.992188 97.019531 21.085938 C 96.683594 21.183594 96.347656 21.265625 96.011719 21.335938 C 95.675781 21.40625 95.347656 21.460938 95.023438 21.503906 C 94.703125 21.546875 94.390625 21.574219 94.09375 21.589844 C 93.796875 21.601562 93.515625 21.601562 93.253906 21.582031 C 92.996094 21.566406 92.757812 21.535156 92.542969 21.488281 C 92.328125 21.445312 92.140625 21.382812 91.980469 21.3125 C 91.824219 21.238281 91.695312 21.152344 91.59375 21.054688 C 91.496094 20.957031 91.429688 20.847656 91.398438 20.730469 C 91.363281 20.613281 91.363281 20.484375 91.394531 20.351562 C 91.429688 20.214844 91.492188 20.074219 91.589844 19.929688 C 91.6875 19.78125 91.816406 19.632812 91.976562 19.480469 C 92.132812 19.332031 92.320312 19.179688 92.53125 19.027344 C 92.746094 18.875 92.984375 18.730469 93.246094 18.582031 C 93.503906 18.4375 93.785156 18.300781 94.082031 18.167969 C 94.378906 18.03125 94.6875 17.90625 95.011719 17.792969 C 95.332031 17.675781 95.664062 17.570312 96 17.472656 C 96.332031 17.378906 96.667969 17.296875 97.003906 17.226562 C 97.339844 17.15625 97.671875 17.097656 97.992188 17.058594 C 98.316406 17.015625 98.625 16.984375 98.925781 16.972656 C 99.222656 16.960938 99.5 16.960938 99.761719 16.976562 C 100.023438 16.996094 100.261719 17.027344 100.476562 17.070312 C 100.691406 17.117188 100.878906 17.175781 101.035156 17.25 C 101.195312 17.324219 101.324219 17.410156 101.421875 17.507812 C 101.523438 17.605469 101.585938 17.710938 101.621094 17.832031 Z M 101.621094 17.832031"/><path fill="#472700" d="M 137.25 141.054688 C 135.832031 139.714844 134.3125 138.507812 132.683594 137.4375 C 129.464844 135.285156 126.113281 135.324219 123.503906 138.335938 C 123.433594 138.410156 123.386719 138.492188 123.363281 138.589844 C 123.339844 138.6875 123.34375 138.785156 123.371094 138.882812 C 123.398438 138.980469 123.445312 139.0625 123.515625 139.132812 C 123.585938 139.203125 123.671875 139.253906 123.765625 139.28125 C 124.789062 139.535156 125.828125 139.664062 126.882812 139.667969 C 128.21875 139.597656 129.492188 139.199219 130.855469 139.285156 C 132.050781 139.390625 133.199219 139.6875 134.292969 140.183594 C 135.449219 140.675781 137.816406 141.691406 138.265625 142.957031 C 138.285156 143.011719 138.320312 143.035156 138.378906 143.035156 C 138.433594 143.035156 138.46875 143.011719 138.488281 142.957031 C 138.679688 142.109375 137.808594 141.5625 137.25 141.054688 Z M 137.25 141.054688"/><g clip-path="url(#a)"><path fill="#472700" d="M 197.214844 169.339844 C 194.203125 150.9375 189.804688 132.875 184.015625 115.152344 C 178.449219 98.15625 172 83.121094 164.84375 70.492188 C 156.238281 55.304688 146.570312 43.5625 136.125 35.554688 C 137.441406 34.578125 138.5625 33.410156 139.480469 32.054688 C 140.398438 30.695312 141.070312 29.222656 141.488281 27.636719 C 142.726562 23.003906 143.425781 16.226562 139.710938 10.207031 C 135.441406 3.296875 126.902344 0.078125 118.902344 2.34375 L 118.78125 2.378906 L 23.941406 29.945312 L 23.871094 29.972656 C 20 31.015625 15.703125 33.457031 11.332031 38.386719 C 0.015625 51.066406 8.679688 69.378906 17.832031 88.769531 C 23.078125 99.882812 28.507812 111.371094 30.371094 122.253906 C 35.359375 151.328125 21.625 174.167969 21.472656 174.414062 C 21.234375 174.800781 21.234375 175.1875 21.464844 175.578125 C 21.699219 175.96875 22.042969 176.152344 22.496094 176.125 C 23.023438 176.097656 34.761719 175.480469 43.675781 172.640625 C 43.054688 175.445312 42.242188 178.199219 41.246094 180.894531 C 41.214844 180.988281 41.191406 181.078125 41.183594 181.175781 C 41.171875 181.273438 41.175781 181.367188 41.191406 181.464844 C 41.207031 181.558594 41.230469 181.652344 41.269531 181.738281 C 41.308594 181.828125 41.359375 181.910156 41.417969 181.984375 C 41.480469 182.0625 41.546875 182.128906 41.625 182.1875 C 41.703125 182.246094 41.785156 182.292969 41.875 182.328125 C 41.964844 182.367188 42.054688 182.390625 42.152344 182.402344 C 42.246094 182.414062 42.34375 182.414062 42.4375 182.402344 C 47.832031 181.609375 53.148438 180.460938 58.386719 178.960938 C 62.550781 177.792969 66.632812 176.386719 70.632812 174.738281 C 72.300781 186.859375 73.171875 199.039062 73.242188 211.273438 C 73.246094 211.519531 73.316406 211.742188 73.464844 211.941406 C 73.613281 212.136719 73.804688 212.269531 74.039062 212.34375 C 74.617188 212.519531 88.484375 216.625 110.265625 214.519531 C 118.460938 213.722656 126.515625 212.191406 134.433594 209.929688 C 151.707031 205.03125 172.257812 195.730469 193.585938 178.488281 C 193.597656 178.476562 193.609375 178.464844 193.617188 178.453125 C 193.667969 178.410156 193.714844 178.359375 193.753906 178.308594 L 193.800781 178.253906 C 193.847656 178.183594 193.890625 178.109375 193.921875 178.027344 L 193.921875 177.992188 C 193.949219 177.921875 193.964844 177.851562 193.972656 177.777344 C 193.976562 177.75 193.976562 177.726562 193.972656 177.703125 C 193.976562 177.632812 193.976562 177.566406 193.972656 177.496094 C 193.972656 177.496094 193.972656 177.46875 193.972656 177.453125 C 193.972656 177.441406 193.75 175.910156 193.308594 173.230469 C 194.484375 172.296875 195.660156 171.332031 196.828125 170.339844 C 197.140625 170.078125 197.269531 169.746094 197.214844 169.339844 Z M 119.40625 4.535156 C 126.457031 2.496094 134.042969 5.300781 137.808594 11.394531 C 141.105469 16.722656 140.449219 22.851562 139.328125 27.058594 C 138.929688 28.585938 138.253906 29.984375 137.304688 31.246094 C 136.359375 32.511719 135.207031 33.550781 133.851562 34.359375 C 133.648438 34.40625 133.476562 34.5 133.328125 34.644531 C 133.117188 34.746094 132.890625 34.851562 132.691406 34.945312 C 95.601562 50.8125 62.09375 58.660156 51.078125 61.003906 C 52.953125 58.652344 53.449219 55.410156 52.542969 51.347656 C 50.613281 42.683594 43.414062 32.558594 33.375 29.945312 C 33.128906 29.882812 32.875 29.824219 32.613281 29.765625 Z M 24.402344 173.734375 C 27.59375 167.609375 36.890625 146.992188 32.582031 121.882812 C 30.664062 110.703125 25.1875 99.066406 19.859375 87.8125 C 11.035156 69.105469 2.699219 51.445312 13.007812 39.878906 C 19.125 32.996094 25.976562 30.324219 32.832031 32.125 C 41.96875 34.507812 48.570312 43.855469 50.355469 51.859375 C 51.15625 55.453125 50.699219 58.1875 48.996094 59.996094 C 47.296875 61.804688 44.6875 62.46875 42.277344 62.710938 L 42.53125 62.480469 C 45.371094 59.773438 45.054688 55.140625 41.773438 51.457031 C 38.054688 47.292969 31.007812 45.355469 24.332031 50.96875 C 16.3125 57.710938 22.96875 71.113281 30.011719 85.304688 C 33.554688 92.441406 37.21875 99.820312 38.804688 106.164062 C 45.445312 132.644531 47.230469 153.691406 44.183594 170.101562 C 37.535156 172.460938 28.414062 173.414062 24.402344 173.734375 Z M 40.980469 60.851562 C 39.601562 62.160156 38.3125 62.707031 37.15625 62.457031 C 35.710938 62.152344 34.546875 60.644531 33.875 59.507812 L 41.898438 55.992188 C 42.480469 57.753906 42.335938 59.574219 40.980469 60.855469 Z M 43.972656 179.902344 C 50.011719 162.039062 49.027344 137.695312 40.980469 105.617188 C 39.332031 99.039062 35.617188 91.542969 32.019531 84.300781 C 25.378906 70.925781 19.105469 58.289062 25.777344 52.679688 C 31.339844 48.011719 36.976562 49.453125 40.101562 52.953125 C 40.390625 53.277344 40.65625 53.621094 40.898438 53.980469 L 31.890625 57.902344 L 31.8125 57.945312 L 31.71875 58 C 31.683594 58.023438 31.652344 58.046875 31.621094 58.074219 L 31.546875 58.136719 L 31.46875 58.226562 L 31.414062 58.300781 L 31.355469 58.402344 C 31.339844 58.433594 31.324219 58.460938 31.308594 58.492188 C 31.292969 58.53125 31.28125 58.570312 31.273438 58.605469 C 31.261719 58.636719 31.25 58.667969 31.242188 58.699219 C 31.242188 58.75 31.242188 58.804688 31.242188 58.855469 C 31.246094 58.875 31.246094 58.894531 31.242188 58.914062 L 31.078125 68.445312 C 31.074219 68.710938 31.152344 68.949219 31.316406 69.160156 C 31.417969 69.292969 41.761719 82.636719 52.058594 106.726562 C 60.992188 127.824219 67.082031 149.714844 70.335938 172.394531 C 59.359375 177.070312 48.246094 179.207031 43.972656 179.90625 Z M 191.652344 177.082031 C 159.40625 198.433594 131.167969 205.363281 113.105469 207.382812 C 96.203125 209.277344 84.847656 207.382812 81.902344 206.769531 L 78.945312 178.769531 C 78.925781 178.625 78.878906 178.488281 78.804688 178.359375 C 78.734375 178.234375 78.640625 178.125 78.527344 178.03125 C 78.410156 177.941406 78.28125 177.875 78.140625 177.835938 C 78 177.796875 77.859375 177.78125 77.710938 177.796875 C 77.566406 177.8125 77.429688 177.855469 77.300781 177.925781 C 77.171875 177.992188 77.058594 178.085938 76.964844 178.199219 C 76.875 178.308594 76.804688 178.4375 76.761719 178.574219 C 76.714844 178.714844 76.699219 178.859375 76.710938 179.003906 L 79.757812 207.816406 C 79.78125 208.046875 79.875 208.253906 80.027344 208.429688 C 80.183594 208.609375 80.375 208.726562 80.601562 208.78125 C 81.105469 208.910156 93.179688 211.859375 113.238281 209.632812 C 121.640625 208.671875 129.910156 207.027344 138.039062 204.695312 C 148.824219 201.605469 159.238281 197.566406 169.285156 192.578125 C 146.058594 206.085938 125.089844 210.847656 110.160156 212.285156 C 91.664062 214.070312 78.703125 211.222656 75.464844 210.398438 C 75.359375 197.933594 74.429688 185.53125 72.683594 173.191406 C 72.691406 173.03125 72.667969 172.875 72.613281 172.722656 C 69.351562 149.632812 63.179688 127.355469 54.097656 105.882812 C 44.5625 83.597656 34.949219 70.328125 33.300781 68.136719 L 33.398438 62.625 C 33.964844 63.253906 34.621094 63.769531 35.367188 64.167969 C 35.425781 64.289062 35.5 64.394531 35.59375 64.488281 C 35.6875 64.582031 45 73.910156 55.550781 95.683594 C 65.296875 115.785156 78.121094 150.910156 83.882812 204.058594 C 83.910156 204.320312 84.019531 204.542969 84.203125 204.730469 C 84.390625 204.917969 84.613281 205.027344 84.875 205.054688 C 85.03125 205.054688 100.878906 206.800781 122.472656 203.367188 C 129.0625 202.320312 135.570312 200.890625 141.996094 199.074219 C 157.359375 194.71875 174.890625 187.308594 191.296875 174.804688 C 191.457031 175.816406 191.574219 176.582031 191.652344 177.085938 Z M 122.191406 201.148438 C 103.773438 204.070312 89.613281 203.214844 86.015625 202.917969 C 80.160156 149.859375 67.304688 114.726562 57.496094 94.566406 C 49.566406 78.246094 42.457031 68.953125 39.132812 65.066406 C 41.308594 65.128906 44.324219 64.960938 46.996094 63.902344 C 47.210938 64 47.433594 64.027344 47.664062 63.984375 C 47.882812 63.945312 59.847656 61.714844 78.058594 56.554688 C 96.976562 51.210938 115.480469 44.695312 133.574219 37.007812 C 133.730469 36.941406 133.878906 36.863281 134.03125 36.796875 C 158.027344 54.691406 173.28125 89.585938 181.898438 115.816406 C 187.566406 133.234375 191.898438 150.980469 194.898438 169.046875 C 170.085938 189.972656 141.695312 198.054688 122.191406 201.148438 Z M 122.191406 201.148438"/></g><path fill="#472700" d="M 148.898438 109.746094 L 113.285156 122.5 C 113.042969 122.589844 112.855469 122.742188 112.714844 122.957031 C 112.578125 123.175781 112.523438 123.414062 112.546875 123.667969 C 112.636719 124.539062 114.820312 144.9375 126.625 151.117188 C 130.363281 153.085938 134.609375 153.394531 139.324219 152.058594 C 141.644531 151.375 143.859375 150.441406 145.964844 149.25 C 150.792969 146.59375 153.953125 142.714844 155.359375 137.703125 C 158.804688 125.460938 150.597656 110.839844 150.25 110.226562 C 150.113281 109.992188 149.914062 109.832031 149.660156 109.742188 C 149.40625 109.652344 149.152344 109.652344 148.898438 109.746094 Z M 153.199219 137.132812 C 151.960938 141.527344 149.164062 144.953125 144.878906 147.316406 C 138.171875 151.015625 132.378906 151.636719 127.675781 149.164062 C 118.222656 144.199219 115.4375 128.25 114.890625 124.328125 L 148.742188 112.203125 C 150.386719 115.40625 155.949219 127.359375 153.199219 137.132812 Z M 153.199219 137.132812"/><path fill="#472700" d="M 145.699219 84.578125 C 146.144531 85.621094 146.53125 86.675781 146.859375 87.75 C 147.1875 88.820312 147.449219 89.886719 147.640625 90.941406 C 147.835938 92 147.960938 93.03125 148.011719 94.035156 C 148.066406 95.042969 148.050781 96 147.960938 96.910156 C 147.871094 97.824219 147.714844 98.671875 147.484375 99.457031 C 147.257812 100.242188 146.964844 100.945312 146.605469 101.574219 C 146.246094 102.199219 145.832031 102.734375 145.355469 103.179688 C 144.882812 103.625 144.359375 103.972656 143.785156 104.21875 C 143.210938 104.464844 142.601562 104.605469 141.953125 104.644531 C 141.304688 104.683594 140.628906 104.613281 139.929688 104.441406 C 139.226562 104.269531 138.515625 103.996094 137.789062 103.621094 C 137.066406 103.246094 136.34375 102.777344 135.621094 102.214844 C 134.898438 101.652344 134.195312 101.003906 133.503906 100.273438 C 132.8125 99.542969 132.152344 98.742188 131.519531 97.871094 C 130.886719 97.003906 130.296875 96.078125 129.746094 95.105469 C 129.195312 94.128906 128.695312 93.121094 128.25 92.074219 C 127.800781 91.03125 127.414062 89.976562 127.085938 88.902344 C 126.761719 87.832031 126.5 86.765625 126.304688 85.710938 C 126.113281 84.652344 125.988281 83.621094 125.933594 82.613281 C 125.882812 81.609375 125.898438 80.652344 125.988281 79.742188 C 126.078125 78.828125 126.234375 77.980469 126.460938 77.195312 C 126.691406 76.410156 126.984375 75.707031 127.339844 75.078125 C 127.699219 74.453125 128.117188 73.917969 128.589844 73.472656 C 129.066406 73.027344 129.589844 72.679688 130.160156 72.433594 C 130.734375 72.1875 131.34375 72.046875 131.996094 72.007812 C 132.644531 71.96875 133.320312 72.039062 134.019531 72.210938 C 134.71875 72.382812 135.433594 72.65625 136.15625 73.03125 C 136.882812 73.40625 137.605469 73.875 138.328125 74.4375 C 139.046875 75 139.753906 75.648438 140.445312 76.378906 C 141.132812 77.109375 141.796875 77.910156 142.429688 78.78125 C 143.058594 79.648438 143.652344 80.574219 144.203125 81.546875 C 144.753906 82.523438 145.25 83.53125 145.699219 84.578125 Z M 145.699219 84.578125"/><path fill="#472700" d="M 115.320312 97.632812 C 115.765625 98.675781 116.15625 99.734375 116.480469 100.804688 C 116.808594 101.875 117.070312 102.941406 117.261719 104 C 117.457031 105.058594 117.582031 106.089844 117.632812 107.09375 C 117.6875 108.097656 117.671875 109.054688 117.582031 109.96875 C 117.492188 110.878906 117.335938 111.726562 117.105469 112.511719 C 116.878906 113.296875 116.585938 114.003906 116.226562 114.628906 C 115.871094 115.257812 115.453125 115.792969 114.976562 116.238281 C 114.503906 116.683594 113.980469 117.027344 113.40625 117.273438 C 112.835938 117.519531 112.222656 117.664062 111.574219 117.699219 C 110.925781 117.738281 110.25 117.671875 109.550781 117.5 C 108.847656 117.328125 108.136719 117.054688 107.410156 116.679688 C 106.6875 116.304688 105.964844 115.835938 105.242188 115.269531 C 104.519531 114.707031 103.816406 114.058594 103.125 113.328125 C 102.433594 112.597656 101.773438 111.796875 101.140625 110.929688 C 100.507812 110.058594 99.917969 109.136719 99.367188 108.160156 C 98.816406 107.183594 98.316406 106.175781 97.871094 105.132812 C 97.421875 104.089844 97.035156 103.03125 96.707031 101.960938 C 96.382812 100.890625 96.121094 99.824219 95.925781 98.765625 C 95.734375 97.707031 95.609375 96.675781 95.554688 95.671875 C 95.503906 94.667969 95.519531 93.710938 95.609375 92.796875 C 95.699219 91.886719 95.855469 91.035156 96.082031 90.253906 C 96.3125 89.46875 96.605469 88.761719 96.960938 88.136719 C 97.320312 87.507812 97.738281 86.972656 98.210938 86.527344 C 98.6875 86.082031 99.210938 85.738281 99.785156 85.492188 C 100.355469 85.246094 100.96875 85.101562 101.617188 85.066406 C 102.265625 85.027344 102.941406 85.09375 103.640625 85.265625 C 104.339844 85.4375 105.054688 85.710938 105.777344 86.085938 C 106.503906 86.460938 107.226562 86.929688 107.949219 87.492188 C 108.667969 88.058594 109.375 88.703125 110.066406 89.4375 C 110.753906 90.167969 111.417969 90.96875 112.050781 91.835938 C 112.683594 92.707031 113.273438 93.628906 113.824219 94.605469 C 114.375 95.578125 114.871094 96.589844 115.320312 97.632812 Z M 115.320312 97.632812"/><path fill="#FFF" d="M 141.40625 79.144531 C 141.558594 79.457031 141.691406 79.78125 141.800781 80.109375 C 141.910156 80.4375 142 80.765625 142.0625 81.09375 C 142.125 81.421875 142.164062 81.746094 142.179688 82.0625 C 142.195312 82.378906 142.183594 82.683594 142.148438 82.976562 C 142.113281 83.269531 142.054688 83.546875 141.96875 83.800781 C 141.886719 84.058594 141.78125 84.292969 141.652344 84.507812 C 141.523438 84.71875 141.375 84.902344 141.203125 85.0625 C 141.035156 85.222656 140.847656 85.347656 140.644531 85.449219 C 140.441406 85.546875 140.226562 85.613281 140 85.648438 C 139.769531 85.683594 139.53125 85.6875 139.285156 85.660156 C 139.039062 85.628906 138.789062 85.570312 138.535156 85.476562 C 138.28125 85.382812 138.027344 85.261719 137.777344 85.109375 C 137.527344 84.953125 137.28125 84.773438 137.039062 84.566406 C 136.800781 84.359375 136.570312 84.128906 136.351562 83.878906 C 136.132812 83.625 135.925781 83.351562 135.738281 83.0625 C 135.546875 82.773438 135.375 82.46875 135.222656 82.15625 C 135.070312 81.839844 134.9375 81.519531 134.828125 81.191406 C 134.714844 80.863281 134.628906 80.53125 134.566406 80.203125 C 134.5 79.875 134.460938 79.550781 134.449219 79.234375 C 134.433594 78.917969 134.441406 78.613281 134.480469 78.320312 C 134.515625 78.027344 134.574219 77.753906 134.65625 77.496094 C 134.742188 77.238281 134.847656 77.003906 134.976562 76.792969 C 135.105469 76.578125 135.253906 76.394531 135.421875 76.234375 C 135.59375 76.078125 135.777344 75.949219 135.980469 75.847656 C 136.183594 75.75 136.398438 75.683594 136.628906 75.648438 C 136.859375 75.613281 137.09375 75.609375 137.339844 75.636719 C 137.585938 75.667969 137.835938 75.730469 138.089844 75.820312 C 138.34375 75.914062 138.597656 76.039062 138.851562 76.191406 C 139.101562 76.34375 139.347656 76.523438 139.585938 76.730469 C 139.828125 76.9375 140.058594 77.167969 140.277344 77.421875 C 140.496094 77.675781 140.699219 77.945312 140.890625 78.234375 C 141.078125 78.523438 141.25 78.828125 141.40625 79.144531 Z M 141.40625 79.144531"/><path fill="#FFF" d="M 111.4375 93.132812 C 111.589844 93.449219 111.722656 93.769531 111.835938 94.097656 C 111.945312 94.425781 112.03125 94.753906 112.097656 95.085938 C 112.160156 95.414062 112.199219 95.738281 112.214844 96.054688 C 112.226562 96.371094 112.21875 96.675781 112.183594 96.96875 C 112.148438 97.261719 112.089844 97.535156 112.003906 97.792969 C 111.921875 98.050781 111.8125 98.285156 111.683594 98.496094 C 111.554688 98.710938 111.40625 98.894531 111.238281 99.054688 C 111.070312 99.210938 110.882812 99.339844 110.679688 99.4375 C 110.476562 99.539062 110.261719 99.605469 110.03125 99.640625 C 109.804688 99.675781 109.566406 99.679688 109.320312 99.648438 C 109.074219 99.621094 108.824219 99.558594 108.570312 99.46875 C 108.316406 99.375 108.0625 99.25 107.8125 99.097656 C 107.558594 98.945312 107.3125 98.765625 107.074219 98.558594 C 106.832031 98.351562 106.605469 98.121094 106.382812 97.867188 C 106.164062 97.613281 105.960938 97.34375 105.769531 97.054688 C 105.582031 96.761719 105.410156 96.460938 105.257812 96.144531 C 105.101562 95.832031 104.972656 95.507812 104.859375 95.179688 C 104.75 94.851562 104.664062 94.523438 104.597656 94.195312 C 104.535156 93.867188 104.496094 93.542969 104.480469 93.226562 C 104.46875 92.910156 104.476562 92.605469 104.511719 92.3125 C 104.546875 92.019531 104.605469 91.742188 104.691406 91.484375 C 104.773438 91.230469 104.878906 90.992188 105.007812 90.78125 C 105.136719 90.570312 105.289062 90.386719 105.457031 90.226562 C 105.625 90.066406 105.8125 89.9375 106.015625 89.839844 C 106.21875 89.742188 106.433594 89.675781 106.664062 89.636719 C 106.890625 89.601562 107.128906 89.601562 107.375 89.628906 C 107.621094 89.660156 107.871094 89.71875 108.125 89.8125 C 108.378906 89.90625 108.632812 90.027344 108.882812 90.179688 C 109.136719 90.332031 109.382812 90.515625 109.621094 90.722656 C 109.863281 90.929688 110.089844 91.15625 110.3125 91.410156 C 110.53125 91.664062 110.734375 91.9375 110.925781 92.226562 C 111.113281 92.515625 111.285156 92.816406 111.4375 93.132812 Z M 111.4375 93.132812"/><g fill="#826F0B" fill-opacity=".4"><g><g><path d="M 15.90625 14.25 C 12.550781 14.25 9.851562 13.390625 7.8125 11.671875 C 5.769531 9.953125 4.75 7.691406 4.75 4.890625 C 4.75 3.140625 5.160156 1.53125 5.984375 0.0625 C 6.816406 -1.40625 7.941406 -2.5625 9.359375 -3.40625 C 10.785156 -4.257812 12.347656 -4.6875 14.046875 -4.6875 C 15.796875 -4.6875 17.207031 -4.25 18.28125 -3.375 C 19.363281 -2.5 19.90625 -1.351562 19.90625 0.0625 C 19.90625 1.164062 19.648438 2.039062 19.140625 2.6875 C 18.734375 2.132812 18.171875 1.695312 17.453125 1.375 C 16.742188 1.050781 16 0.890625 15.21875 0.890625 C 13.84375 0.890625 12.71875 1.347656 11.84375 2.265625 C 10.96875 3.191406 10.53125 4.390625 10.53125 5.859375 C 10.53125 7.328125 10.957031 8.519531 11.8125 9.4375 C 12.664062 10.351562 13.734375 10.8125 15.015625 10.8125 C 16.617188 10.8125 17.992188 10.097656 19.140625 8.671875 C 20.296875 7.253906 21.171875 5.144531 21.765625 2.34375 L 25.203125 -12.875 L 24.9375 -12.875 C 23.695312 -11.132812 22.191406 -9.800781 20.421875 -8.875 C 18.648438 -7.957031 16.707031 -7.5 14.59375 -7.5 C 11.9375 -7.5 9.597656 -8.210938 7.578125 -9.640625 C 5.554688 -11.066406 4.003906 -13.097656 2.921875 -15.734375 C 1.847656 -18.378906 1.3125 -21.445312 1.3125 -24.9375 C 1.3125 -29.988281 2.410156 -34.585938 4.609375 -38.734375 C 6.816406 -42.890625 9.847656 -46.160156 13.703125 -48.546875 C 17.554688 -50.941406 21.804688 -52.140625 26.453125 -52.140625 C 30.347656 -52.140625 33.429688 -51.289062 35.703125 -49.59375 C 37.984375 -47.894531 39.125 -45.578125 39.125 -42.640625 C 39.125 -40.660156 38.640625 -39.070312 37.671875 -37.875 C 36.710938 -36.6875 35.453125 -36.09375 33.890625 -36.09375 C 33.015625 -36.09375 32.195312 -36.273438 31.4375 -36.640625 C 30.6875 -37.003906 30.054688 -37.53125 29.546875 -38.21875 C 30.367188 -38.769531 31.066406 -39.65625 31.640625 -40.875 C 32.222656 -42.09375 32.515625 -43.320312 32.515625 -44.5625 C 32.515625 -45.9375 32.109375 -47.003906 31.296875 -47.765625 C 30.492188 -48.523438 29.359375 -48.90625 27.890625 -48.90625 C 25.234375 -48.90625 22.664062 -47.722656 20.1875 -45.359375 C 17.707031 -42.992188 15.707031 -39.90625 14.1875 -36.09375 C 12.675781 -32.28125 11.921875 -28.285156 11.921875 -24.109375 C 11.921875 -20.660156 12.46875 -18.03125 13.5625 -16.21875 C 14.664062 -14.40625 16.253906 -13.5 18.328125 -13.5 C 20.804688 -13.5 22.992188 -14.804688 24.890625 -17.421875 C 26.796875 -20.035156 28.328125 -23.847656 29.484375 -28.859375 L 37.609375 -28.796875 L 32.578125 -5.640625 C 31.109375 1.191406 29.03125 6.210938 26.34375 9.421875 C 23.65625 12.640625 20.175781 14.25 15.90625 14.25 Z M 15.90625 14.25" transform="translate(211.095 135.75)"/></g></g></g><g fill="#826F0B" fill-opacity=".4"><g><g><path d="M 6.8125 0.40625 C 4.613281 0.40625 2.835938 -0.28125 1.484375 -1.65625 C 0.128906 -3.03125 -0.546875 -5.097656 -0.546875 -7.859375 C -0.546875 -9.003906 -0.363281 -10.492188 0 -12.328125 L 7.375 -46.828125 L 17.5625 -48.21875 L 9.640625 -11.015625 C 9.453125 -10.328125 9.359375 -9.59375 9.359375 -8.8125 C 9.359375 -7.894531 9.578125 -7.238281 10.015625 -6.84375 C 10.453125 -6.457031 11.175781 -6.265625 12.1875 -6.265625 C 13.519531 -6.265625 14.757812 -6.828125 15.90625 -7.953125 C 17.050781 -9.078125 17.878906 -10.535156 18.390625 -12.328125 L 21.28125 -12.328125 C 19.582031 -7.367188 17.398438 -4.003906 14.734375 -2.234375 C 12.078125 -0.472656 9.4375 0.40625 6.8125 0.40625 Z M 6.8125 0.40625" transform="translate(250.894 135.75)"/></g></g></g><g fill="#826F0B" fill-opacity=".4"><g><g><path d="M 21.765625 -51.65625 L 29 -51.65625 L 20.65625 -38.640625 L 15.5 -38.640625 Z M 10.0625 0.28125 C 6.65625 0.28125 3.960938 -0.585938 1.984375 -2.328125 C 0.015625 -4.078125 -0.96875 -6.835938 -0.96875 -10.609375 C -0.96875 -13.734375 -0.328125 -17.195312 0.953125 -21 C 2.242188 -24.8125 4.3125 -28.109375 7.15625 -30.890625 C 10.007812 -33.671875 13.59375 -35.0625 17.90625 -35.0625 C 23.78125 -35.0625 26.71875 -31.382812 26.71875 -24.03125 L 26.71875 -23.96875 C 26.863281 -23.925781 27.117188 -23.90625 27.484375 -23.90625 C 28.992188 -23.90625 30.734375 -24.304688 32.703125 -25.109375 C 34.679688 -25.910156 36.476562 -26.882812 38.09375 -28.03125 L 38.703125 -26.171875 C 37.367188 -24.742188 35.632812 -23.535156 33.5 -22.546875 C 31.375 -21.566406 29.046875 -20.867188 26.515625 -20.453125 C 26.148438 -16.273438 25.207031 -12.625 23.6875 -9.5 C 22.175781 -6.382812 20.222656 -3.972656 17.828125 -2.265625 C 15.441406 -0.566406 12.851562 0.28125 10.0625 0.28125 Z M 12.8125 -5.921875 C 13.914062 -5.921875 15.015625 -6.550781 16.109375 -7.8125 C 17.210938 -9.082031 18.175781 -10.804688 19 -12.984375 C 19.832031 -15.160156 20.429688 -17.582031 20.796875 -20.25 C 19.554688 -20.519531 18.9375 -21.484375 18.9375 -23.140625 C 18.9375 -25.023438 19.648438 -26.265625 21.078125 -26.859375 C 20.984375 -28.378906 20.753906 -29.425781 20.390625 -30 C 20.023438 -30.570312 19.378906 -30.859375 18.453125 -30.859375 C 16.941406 -30.859375 15.472656 -29.753906 14.046875 -27.546875 C 12.628906 -25.347656 11.484375 -22.707031 10.609375 -19.625 C 9.734375 -16.550781 9.296875 -13.84375 9.296875 -11.5 C 9.296875 -9.300781 9.546875 -7.820312 10.046875 -7.0625 C 10.554688 -6.300781 11.476562 -5.921875 12.8125 -5.921875 Z M 12.8125 -5.921875" transform="translate(269.279 135.75)"/></g></g></g><g fill="#826F0B" fill-opacity=".4"><g><g><path d="M 7.859375 0.40625 C 5.648438 0.40625 3.785156 -0.015625 2.265625 -0.859375 C 0.753906 -1.710938 -0.363281 -2.816406 -1.09375 -4.171875 C -1.832031 -5.523438 -2.203125 -6.9375 -2.203125 -8.40625 C -2.203125 -9.914062 -1.84375 -11.234375 -1.125 -12.359375 C -0.414062 -13.484375 0.441406 -14.300781 1.453125 -14.8125 C 3.234375 -18.019531 4.789062 -21.265625 6.125 -24.546875 C 7.457031 -27.835938 8.722656 -31.382812 9.921875 -35.1875 L 20.109375 -36.578125 C 20.335938 -30.691406 20.726562 -24.332031 21.28125 -17.5 C 21.507812 -14.738281 21.625 -12.738281 21.625 -11.5 C 21.625 -10.445312 21.53125 -9.578125 21.34375 -8.890625 C 23.507812 -10.128906 25.164062 -11.273438 26.3125 -12.328125 L 29.203125 -12.328125 C 26.265625 -8.929688 22.753906 -6.0625 18.671875 -3.71875 C 17.335938 -2.289062 15.691406 -1.242188 13.734375 -0.578125 C 11.785156 0.078125 9.828125 0.40625 7.859375 0.40625 Z M 5.640625 -5.03125 C 7.347656 -5.03125 8.773438 -5.535156 9.921875 -6.546875 C 11.066406 -7.554688 11.640625 -9.1875 11.640625 -11.4375 C 11.640625 -12.8125 11.503906 -14.738281 11.234375 -17.21875 C 10.765625 -22.457031 10.460938 -25.96875 10.328125 -27.75 C 9.222656 -24.125 7.363281 -19.785156 4.75 -14.734375 C 5.8125 -14.179688 6.34375 -13.378906 6.34375 -12.328125 C 6.34375 -11.453125 6.050781 -10.671875 5.46875 -9.984375 C 4.894531 -9.296875 4.175781 -8.953125 3.3125 -8.953125 C 2.34375 -8.953125 1.722656 -9.25 1.453125 -9.84375 C 1.453125 -8.195312 1.78125 -6.984375 2.4375 -6.203125 C 3.101562 -5.421875 4.171875 -5.03125 5.640625 -5.03125 Z M 5.640625 -5.03125" transform="translate(299.506 135.75)"/></g></g></g><g fill="#826F0B" fill-opacity=".4"><g><g><path d="M 8.265625 0.40625 C 5.648438 0.40625 3.46875 -0.484375 1.71875 -2.265625 C -0.0195312 -4.054688 -0.890625 -6.859375 -0.890625 -10.671875 C -0.890625 -14.066406 -0.210938 -17.632812 1.140625 -21.375 C 2.492188 -25.125 4.515625 -28.296875 7.203125 -30.890625 C 9.890625 -33.484375 13.09375 -34.78125 16.8125 -34.78125 C 18.6875 -34.78125 20.082031 -34.457031 21 -33.8125 C 21.925781 -33.175781 22.390625 -32.328125 22.390625 -31.265625 L 22.390625 -30.78125 L 23.140625 -34.4375 L 33.0625 -34.4375 L 28.09375 -11.015625 C 27.914062 -10.328125 27.828125 -9.59375 27.828125 -8.8125 C 27.828125 -6.84375 28.769531 -5.859375 30.65625 -5.859375 C 31.9375 -5.859375 33.046875 -6.453125 33.984375 -7.640625 C 34.929688 -8.835938 35.679688 -10.398438 36.234375 -12.328125 L 39.125 -12.328125 C 37.425781 -7.367188 35.320312 -4.003906 32.8125 -2.234375 C 30.3125 -0.472656 27.800781 0.40625 25.28125 0.40625 C 23.351562 0.40625 21.800781 -0.128906 20.625 -1.203125 C 19.457031 -2.285156 18.757812 -3.859375 18.53125 -5.921875 C 17.195312 -4.035156 15.710938 -2.507812 14.078125 -1.34375 C 12.453125 -0.175781 10.515625 0.40625 8.265625 0.40625 Z M 12.734375 -6.265625 C 13.890625 -6.265625 15.03125 -6.800781 16.15625 -7.875 C 17.28125 -8.957031 18.046875 -10.441406 18.453125 -12.328125 L 21.765625 -27.890625 C 21.765625 -28.492188 21.535156 -29.082031 21.078125 -29.65625 C 20.617188 -30.226562 19.90625 -30.515625 18.9375 -30.515625 C 17.101562 -30.515625 15.453125 -29.445312 13.984375 -27.3125 C 12.515625 -25.175781 11.363281 -22.601562 10.53125 -19.59375 C 9.707031 -16.582031 9.296875 -13.929688 9.296875 -11.640625 C 9.296875 -9.347656 9.628906 -7.878906 10.296875 -7.234375 C 10.960938 -6.585938 11.773438 -6.265625 12.734375 -6.265625 Z M 12.734375 -6.265625" transform="translate(325.81 135.75)"/></g></g></g><g fill="#826F0B"><g><g><path d="M 15.90625 14.25 C 12.550781 14.25 9.851562 13.390625 7.8125 11.671875 C 5.769531 9.953125 4.75 7.691406 4.75 4.890625 C 4.75 3.140625 5.160156 1.53125 5.984375 0.0625 C 6.816406 -1.40625 7.941406 -2.5625 9.359375 -3.40625 C 10.785156 -4.257812 12.347656 -4.6875 14.046875 -4.6875 C 15.796875 -4.6875 17.207031 -4.25 18.28125 -3.375 C 19.363281 -2.5 19.90625 -1.351562 19.90625 0.0625 C 19.90625 1.164062 19.648438 2.039062 19.140625 2.6875 C 18.734375 2.132812 18.171875 1.695312 17.453125 1.375 C 16.742188 1.050781 16 0.890625 15.21875 0.890625 C 13.84375 0.890625 12.71875 1.347656 11.84375 2.265625 C 10.96875 3.191406 10.53125 4.390625 10.53125 5.859375 C 10.53125 7.328125 10.957031 8.519531 11.8125 9.4375 C 12.664062 10.351562 13.734375 10.8125 15.015625 10.8125 C 16.617188 10.8125 17.992188 10.097656 19.140625 8.671875 C 20.296875 7.253906 21.171875 5.144531 21.765625 2.34375 L 25.203125 -12.875 L 24.9375 -12.875 C 23.695312 -11.132812 22.191406 -9.800781 20.421875 -8.875 C 18.648438 -7.957031 16.707031 -7.5 14.59375 -7.5 C 11.9375 -7.5 9.597656 -8.210938 7.578125 -9.640625 C 5.554688 -11.066406 4.003906 -13.097656 2.921875 -15.734375 C 1.847656 -18.378906 1.3125 -21.445312 1.3125 -24.9375 C 1.3125 -29.988281 2.410156 -34.585938 4.609375 -38.734375 C 6.816406 -42.890625 9.847656 -46.160156 13.703125 -48.546875 C 17.554688 -50.941406 21.804688 -52.140625 26.453125 -52.140625 C 30.347656 -52.140625 33.429688 -51.289062 35.703125 -49.59375 C 37.984375 -47.894531 39.125 -45.578125 39.125 -42.640625 C 39.125 -40.660156 38.640625 -39.070312 37.671875 -37.875 C 36.710938 -36.6875 35.453125 -36.09375 33.890625 -36.09375 C 33.015625 -36.09375 32.195312 -36.273438 31.4375 -36.640625 C 30.6875 -37.003906 30.054688 -37.53125 29.546875 -38.21875 C 30.367188 -38.769531 31.066406 -39.65625 31.640625 -40.875 C 32.222656 -42.09375 32.515625 -43.320312 32.515625 -44.5625 C 32.515625 -45.9375 32.109375 -47.003906 31.296875 -47.765625 C 30.492188 -48.523438 29.359375 -48.90625 27.890625 -48.90625 C 25.234375 -48.90625 22.664062 -47.722656 20.1875 -45.359375 C 17.707031 -42.992188 15.707031 -39.90625 14.1875 -36.09375 C 12.675781 -32.28125 11.921875 -28.285156 11.921875 -24.109375 C 11.921875 -20.660156 12.46875 -18.03125 13.5625 -16.21875 C 14.664062 -14.40625 16.253906 -13.5 18.328125 -13.5 C 20.804688 -13.5 22.992188 -14.804688 24.890625 -17.421875 C 26.796875 -20.035156 28.328125 -23.847656 29.484375 -28.859375 L 37.609375 -28.796875 L 32.578125 -5.640625 C 31.109375 1.191406 29.03125 6.210938 26.34375 9.421875 C 23.65625 12.640625 20.175781 14.25 15.90625 14.25 Z M 15.90625 14.25" transform="translate(208.051 132.706)"/></g></g></g><g fill="#826F0B"><g><g><path d="M 6.8125 0.40625 C 4.613281 0.40625 2.835938 -0.28125 1.484375 -1.65625 C 0.128906 -3.03125 -0.546875 -5.097656 -0.546875 -7.859375 C -0.546875 -9.003906 -0.363281 -10.492188 0 -12.328125 L 7.375 -46.828125 L 17.5625 -48.21875 L 9.640625 -11.015625 C 9.453125 -10.328125 9.359375 -9.59375 9.359375 -8.8125 C 9.359375 -7.894531 9.578125 -7.238281 10.015625 -6.84375 C 10.453125 -6.457031 11.175781 -6.265625 12.1875 -6.265625 C 13.519531 -6.265625 14.757812 -6.828125 15.90625 -7.953125 C 17.050781 -9.078125 17.878906 -10.535156 18.390625 -12.328125 L 21.28125 -12.328125 C 19.582031 -7.367188 17.398438 -4.003906 14.734375 -2.234375 C 12.078125 -0.472656 9.4375 0.40625 6.8125 0.40625 Z M 6.8125 0.40625" transform="translate(247.85 132.706)"/></g></g></g><g fill="#826F0B"><g><g><path d="M 21.765625 -51.65625 L 29 -51.65625 L 20.65625 -38.640625 L 15.5 -38.640625 Z M 10.0625 0.28125 C 6.65625 0.28125 3.960938 -0.585938 1.984375 -2.328125 C 0.015625 -4.078125 -0.96875 -6.835938 -0.96875 -10.609375 C -0.96875 -13.734375 -0.328125 -17.195312 0.953125 -21 C 2.242188 -24.8125 4.3125 -28.109375 7.15625 -30.890625 C 10.007812 -33.671875 13.59375 -35.0625 17.90625 -35.0625 C 23.78125 -35.0625 26.71875 -31.382812 26.71875 -24.03125 L 26.71875 -23.96875 C 26.863281 -23.925781 27.117188 -23.90625 27.484375 -23.90625 C 28.992188 -23.90625 30.734375 -24.304688 32.703125 -25.109375 C 34.679688 -25.910156 36.476562 -26.882812 38.09375 -28.03125 L 38.703125 -26.171875 C 37.367188 -24.742188 35.632812 -23.535156 33.5 -22.546875 C 31.375 -21.566406 29.046875 -20.867188 26.515625 -20.453125 C 26.148438 -16.273438 25.207031 -12.625 23.6875 -9.5 C 22.175781 -6.382812 20.222656 -3.972656 17.828125 -2.265625 C 15.441406 -0.566406 12.851562 0.28125 10.0625 0.28125 Z M 12.8125 -5.921875 C 13.914062 -5.921875 15.015625 -6.550781 16.109375 -7.8125 C 17.210938 -9.082031 18.175781 -10.804688 19 -12.984375 C 19.832031 -15.160156 20.429688 -17.582031 20.796875 -20.25 C 19.554688 -20.519531 18.9375 -21.484375 18.9375 -23.140625 C 18.9375 -25.023438 19.648438 -26.265625 21.078125 -26.859375 C 20.984375 -28.378906 20.753906 -29.425781 20.390625 -30 C 20.023438 -30.570312 19.378906 -30.859375 18.453125 -30.859375 C 16.941406 -30.859375 15.472656 -29.753906 14.046875 -27.546875 C 12.628906 -25.347656 11.484375 -22.707031 10.609375 -19.625 C 9.734375 -16.550781 9.296875 -13.84375 9.296875 -11.5 C 9.296875 -9.300781 9.546875 -7.820312 10.046875 -7.0625 C 10.554688 -6.300781 11.476562 -5.921875 12.8125 -5.921875 Z M 12.8125 -5.921875" transform="translate(266.235 132.706)"/></g></g></g><g fill="#826F0B"><g><g><path d="M 7.859375 0.40625 C 5.648438 0.40625 3.785156 -0.015625 2.265625 -0.859375 C 0.753906 -1.710938 -0.363281 -2.816406 -1.09375 -4.171875 C -1.832031 -5.523438 -2.203125 -6.9375 -2.203125 -8.40625 C -2.203125 -9.914062 -1.84375 -11.234375 -1.125 -12.359375 C -0.414062 -13.484375 0.441406 -14.300781 1.453125 -14.8125 C 3.234375 -18.019531 4.789062 -21.265625 6.125 -24.546875 C 7.457031 -27.835938 8.722656 -31.382812 9.921875 -35.1875 L 20.109375 -36.578125 C 20.335938 -30.691406 20.726562 -24.332031 21.28125 -17.5 C 21.507812 -14.738281 21.625 -12.738281 21.625 -11.5 C 21.625 -10.445312 21.53125 -9.578125 21.34375 -8.890625 C 23.507812 -10.128906 25.164062 -11.273438 26.3125 -12.328125 L 29.203125 -12.328125 C 26.265625 -8.929688 22.753906 -6.0625 18.671875 -3.71875 C 17.335938 -2.289062 15.691406 -1.242188 13.734375 -0.578125 C 11.785156 0.078125 9.828125 0.40625 7.859375 0.40625 Z M 5.640625 -5.03125 C 7.347656 -5.03125 8.773438 -5.535156 9.921875 -6.546875 C 11.066406 -7.554688 11.640625 -9.1875 11.640625 -11.4375 C 11.640625 -12.8125 11.503906 -14.738281 11.234375 -17.21875 C 10.765625 -22.457031 10.460938 -25.96875 10.328125 -27.75 C 9.222656 -24.125 7.363281 -19.785156 4.75 -14.734375 C 5.8125 -14.179688 6.34375 -13.378906 6.34375 -12.328125 C 6.34375 -11.453125 6.050781 -10.671875 5.46875 -9.984375 C 4.894531 -9.296875 4.175781 -8.953125 3.3125 -8.953125 C 2.34375 -8.953125 1.722656 -9.25 1.453125 -9.84375 C 1.453125 -8.195312 1.78125 -6.984375 2.4375 -6.203125 C 3.101562 -5.421875 4.171875 -5.03125 5.640625 -5.03125 Z M 5.640625 -5.03125" transform="translate(296.462 132.706)"/></g></g></g><g fill="#826F0B"><g><g><path d="M 8.265625 0.40625 C 5.648438 0.40625 3.46875 -0.484375 1.71875 -2.265625 C -0.0195312 -4.054688 -0.890625 -6.859375 -0.890625 -10.671875 C -0.890625 -14.066406 -0.210938 -17.632812 1.140625 -21.375 C 2.492188 -25.125 4.515625 -28.296875 7.203125 -30.890625 C 9.890625 -33.484375 13.09375 -34.78125 16.8125 -34.78125 C 18.6875 -34.78125 20.082031 -34.457031 21 -33.8125 C 21.925781 -33.175781 22.390625 -32.328125 22.390625 -31.265625 L 22.390625 -30.78125 L 23.140625 -34.4375 L 33.0625 -34.4375 L 28.09375 -11.015625 C 27.914062 -10.328125 27.828125 -9.59375 27.828125 -8.8125 C 27.828125 -6.84375 28.769531 -5.859375 30.65625 -5.859375 C 31.9375 -5.859375 33.046875 -6.453125 33.984375 -7.640625 C 34.929688 -8.835938 35.679688 -10.398438 36.234375 -12.328125 L 39.125 -12.328125 C 37.425781 -7.367188 35.320312 -4.003906 32.8125 -2.234375 C 30.3125 -0.472656 27.800781 0.40625 25.28125 0.40625 C 23.351562 0.40625 21.800781 -0.128906 20.625 -1.203125 C 19.457031 -2.285156 18.757812 -3.859375 18.53125 -5.921875 C 17.195312 -4.035156 15.710938 -2.507812 14.078125 -1.34375 C 12.453125 -0.175781 10.515625 0.40625 8.265625 0.40625 Z M 12.734375 -6.265625 C 13.890625 -6.265625 15.03125 -6.800781 16.15625 -7.875 C 17.28125 -8.957031 18.046875 -10.441406 18.453125 -12.328125 L 21.765625 -27.890625 C 21.765625 -28.492188 21.535156 -29.082031 21.078125 -29.65625 C 20.617188 -30.226562 19.90625 -30.515625 18.9375 -30.515625 C 17.101562 -30.515625 15.453125 -29.445312 13.984375 -27.3125 C 12.515625 -25.175781 11.363281 -22.601562 10.53125 -19.59375 C 9.707031 -16.582031 9.296875 -13.929688 9.296875 -11.640625 C 9.296875 -9.347656 9.628906 -7.878906 10.296875 -7.234375 C 10.960938 -6.585938 11.773438 -6.265625 12.734375 -6.265625 Z M 12.734375 -6.265625" transform="translate(322.766 132.706)"/></g></g></g></svg>