<svg xmlns="http://www.w3.org/2000/svg" width="375" viewBox="0 0 375 375" height="375" version="1.0"><defs><clipPath id="a"><path d="M 28 2 L 356.25 2 L 356.25 368 L 28 368 Z M 28 2"/></clipPath></defs><path fill="#D8AE6A" d="M 108.140625 182.359375 C 90.492188 141.132812 72.765625 118.304688 72.585938 118.050781 C 72.367188 117.765625 72.257812 117.4375 72.261719 117.078125 L 72.550781 100.765625 C 72.550781 100.765625 72.550781 100.707031 72.550781 100.675781 C 72.546875 100.609375 72.546875 100.542969 72.550781 100.472656 C 72.546875 100.433594 72.546875 100.390625 72.550781 100.347656 C 72.566406 100.292969 72.582031 100.242188 72.601562 100.191406 C 72.601562 100.152344 72.640625 100.117188 72.664062 100.070312 L 72.742188 99.929688 L 72.8125 99.839844 C 72.847656 99.796875 72.886719 99.746094 72.929688 99.699219 L 73.011719 99.632812 L 73.160156 99.511719 L 73.273438 99.453125 C 73.3125 99.425781 73.355469 99.402344 73.398438 99.386719 L 89.222656 92.460938 C 88.734375 91.6875 88.1875 90.957031 87.574219 90.277344 C 82.109375 84.15625 72.246094 81.621094 62.535156 89.777344 C 50.964844 99.535156 61.761719 121.269531 73.191406 144.285156 C 79.332031 156.640625 85.683594 169.429688 88.511719 180.632812 C 102.355469 235.75 103.96875 277.460938 93.425781 307.996094 C 100.269531 306.910156 120.050781 303.253906 139.476562 294.992188 C 136.707031 275.621094 132.699219 256.511719 127.453125 237.660156 C 122.210938 218.808594 115.769531 200.375 108.140625 182.359375 Z M 108.140625 182.359375"/><path fill="#BC8C46" d="M 90.664062 95.199219 L 76.167969 101.539062 C 77.179688 103.378906 79.304688 106.523438 82.246094 107.148438 C 84.359375 107.59375 86.710938 106.632812 89.140625 104.296875 C 91.566406 101.957031 91.855469 98.449219 90.664062 95.199219 Z M 90.664062 95.199219"/><path fill="#BC8C46" d="M 228.242188 347.269531 C 191.347656 353.101562 164.285156 350.183594 164.015625 350.152344 C 163.65625 350.121094 163.347656 349.980469 163.09375 349.722656 C 162.835938 349.46875 162.691406 349.160156 162.664062 348.796875 C 152.789062 257.847656 130.816406 197.753906 114.117188 163.335938 C 96.035156 126.097656 80.078125 110.113281 79.921875 109.957031 C 79.769531 109.800781 79.660156 109.621094 79.585938 109.417969 C 77.996094 108.582031 76.640625 107.457031 75.527344 106.046875 L 75.34375 116.578125 C 77.890625 119.957031 94.5 142.644531 110.960938 181.125 C 118.695312 199.390625 125.210938 218.082031 130.507812 237.199219 C 135.804688 256.3125 139.839844 275.691406 142.613281 295.335938 C 142.714844 295.574219 142.75 295.820312 142.722656 296.078125 C 145.734375 317.269531 147.324219 338.5625 147.496094 359.964844 C 152.550781 361.273438 174.976562 366.382812 207.230469 363.277344 C 234.777344 360.625 274.328125 351.359375 317.773438 323.964844 C 297.703125 334.730469 276.722656 343.253906 254.835938 349.542969 C 240.941406 353.523438 226.8125 356.332031 212.449219 357.972656 C 178.199219 361.773438 157.613281 356.746094 156.75 356.53125 C 156.4375 356.449219 156.175781 356.289062 155.964844 356.046875 C 155.753906 355.804688 155.632812 355.523438 155.597656 355.203125 L 150.382812 305.964844 C 150.363281 305.761719 150.382812 305.5625 150.4375 305.367188 C 150.496094 305.171875 150.589844 304.996094 150.71875 304.835938 C 150.84375 304.679688 150.996094 304.550781 151.175781 304.453125 C 151.355469 304.355469 151.546875 304.296875 151.746094 304.273438 C 151.949219 304.253906 152.148438 304.269531 152.34375 304.328125 C 152.539062 304.386719 152.714844 304.476562 152.875 304.605469 C 153.03125 304.734375 153.160156 304.886719 153.257812 305.066406 C 153.355469 305.242188 153.414062 305.433594 153.4375 305.636719 L 158.539062 353.78125 C 163.136719 354.734375 182.78125 358.199219 212.277344 354.898438 C 243.265625 351.425781 291.773438 339.578125 347.09375 302.886719 C 346.949219 301.949219 346.699219 300.339844 346.347656 298.136719 C 318.179688 319.734375 288.011719 332.464844 261.613281 339.941406 C 250.632812 343.046875 239.507812 345.488281 228.242188 347.269531 Z M 228.242188 347.269531"/><path fill="#F7D08A" d="M 108.28125 87.855469 C 109.917969 95.179688 108.847656 100.90625 105.109375 104.882812 C 122.761719 101.160156 181.171875 87.753906 245.945312 60.074219 C 246.339844 59.902344 246.734375 59.71875 247.117188 59.515625 C 247.339844 59.292969 247.609375 59.148438 247.917969 59.085938 C 249.097656 58.386719 250.195312 57.582031 251.214844 56.671875 C 252.234375 55.757812 253.15625 54.753906 253.980469 53.664062 C 254.804688 52.570312 255.515625 51.40625 256.113281 50.175781 C 256.707031 48.941406 257.179688 47.664062 257.523438 46.339844 C 259.476562 39.085938 260.589844 28.464844 254.886719 19.265625 C 248.367188 8.726562 235.335938 3.863281 223.132812 7.320312 L 222.949219 7.378906 L 72.945312 50.929688 C 73.933594 51.09375 74.886719 51.300781 75.789062 51.53125 C 92.785156 55.957031 104.996094 73.152344 108.28125 87.855469 Z M 108.28125 87.855469"/><path fill="#D8AE6A" d="M 85.535156 181.382812 C 82.804688 170.496094 76.527344 157.863281 70.457031 145.632812 C 58.472656 121.515625 47.152344 98.710938 60.644531 87.402344 C 71.933594 77.929688 83.496094 80.980469 89.957031 88.207031 C 95.429688 94.328125 95.980469 102.03125 91.269531 106.515625 C 90.828125 106.933594 90.382812 107.3125 89.941406 107.667969 C 94.410156 107.355469 99.667969 106.179688 102.882812 102.785156 C 105.859375 99.59375 106.703125 94.792969 105.296875 88.511719 C 102.207031 74.734375 90.820312 58.628906 75.023438 54.503906 C 63.109375 51.421875 51.285156 56.054688 40.714844 67.910156 C 22.910156 87.871094 37.230469 118.171875 52.386719 150.242188 C 61.464844 169.460938 70.851562 189.316406 74.121094 208.382812 C 81.632812 252.121094 64.933594 287.84375 59.839844 297.421875 C 66.355469 296.921875 82.855469 295.296875 94.6875 291.050781 C 99.972656 262.941406 96.925781 226.8125 85.535156 181.382812 Z M 85.535156 181.382812"/><path fill="#F7D08A" d="M 248.121094 62.449219 C 247.800781 62.609375 247.480469 62.765625 247.152344 62.898438 C 216.210938 76.039062 184.5625 87.171875 152.207031 96.296875 C 121.085938 105.113281 100.605469 108.957031 100.234375 108.996094 C 99.863281 109.058594 99.519531 108.996094 99.199219 108.808594 C 94.269531 110.8125 88.585938 110.984375 84.84375 110.796875 C 90.226562 116.980469 102.75 132.957031 116.785156 161.808594 C 133.542969 196.296875 155.582031 256.402344 165.574219 347.21875 C 171.203125 347.695312 195.75 349.304688 227.863281 344.238281 C 261.328125 338.945312 310.066406 325.074219 352.644531 289.121094 C 347.492188 258.140625 340.046875 227.71875 330.308594 197.859375 C 315.597656 152.894531 289.367188 93.0625 248.121094 62.449219 Z M 284.207031 235.316406 C 281.824219 243.761719 276.480469 250.324219 268.3125 254.824219 C 264.734375 256.84375 260.972656 258.433594 257.03125 259.589844 C 249.074219 261.824219 241.886719 261.324219 235.589844 258.019531 C 215.570312 247.503906 211.855469 212.832031 211.703125 211.355469 C 211.667969 211.003906 211.742188 210.679688 211.933594 210.378906 C 212.121094 210.078125 212.382812 209.871094 212.71875 209.753906 L 273.644531 187.960938 C 273.996094 187.835938 274.34375 187.839844 274.695312 187.96875 C 275.042969 188.097656 275.3125 188.324219 275.496094 188.644531 C 276.09375 189.71875 290.058594 214.535156 284.207031 235.316406 Z M 284.207031 235.316406"/><path fill="#472700" d="M 214.90625 212.234375 C 215.742188 218.378906 220.4375 246.59375 237.027344 255.300781 C 245.214844 259.589844 255.222656 258.527344 266.808594 252.136719 C 274.253906 248.054688 279.078125 242.117188 281.222656 234.496094 C 286.054688 217.367188 276.011719 196.355469 273.414062 191.296875 Z M 214.90625 212.234375"/><path fill="#231F20" d="M 300.46875 120.6875 C 285.652344 94.558594 269.011719 74.429688 250.988281 60.769531 C 253.324219 59.125 255.3125 57.132812 256.945312 54.792969 C 258.582031 52.449219 259.765625 49.898438 260.503906 47.136719 C 262.601562 39.292969 263.785156 27.808594 257.523438 17.648438 C 250.257812 5.980469 235.820312 0.535156 222.300781 4.371094 L 222.089844 4.421875 L 59.828125 51.539062 L 59.675781 51.597656 C 53.117188 53.371094 45.84375 57.558594 38.429688 65.863281 C 19.265625 87.34375 34.003906 118.535156 49.597656 151.5625 C 58.582031 170.585938 67.882812 190.253906 71.082031 208.914062 C 79.652344 258.765625 56.058594 297.949219 55.820312 298.335938 C 55.660156 298.582031 55.578125 298.851562 55.574219 299.144531 C 55.570312 299.4375 55.644531 299.710938 55.796875 299.960938 C 55.945312 300.210938 56.152344 300.402344 56.414062 300.535156 C 56.675781 300.667969 56.949219 300.722656 57.242188 300.699219 C 58.152344 300.652344 78.753906 299.574219 94.015625 294.558594 C 92.929688 299.605469 91.492188 304.550781 89.695312 309.390625 C 89.652344 309.511719 89.621094 309.640625 89.609375 309.773438 C 89.597656 309.902344 89.601562 310.035156 89.621094 310.164062 C 89.640625 310.296875 89.679688 310.421875 89.730469 310.542969 C 89.785156 310.664062 89.851562 310.773438 89.933594 310.878906 C 90.015625 310.980469 90.109375 311.074219 90.214844 311.152344 C 90.320312 311.230469 90.433594 311.296875 90.554688 311.347656 C 90.679688 311.398438 90.804688 311.433594 90.933594 311.449219 C 91.066406 311.46875 91.195312 311.46875 91.328125 311.453125 C 100.542969 310.09375 109.628906 308.132812 118.585938 305.5625 C 125.855469 303.519531 132.980469 301.050781 139.953125 298.15625 C 142.84375 319.058594 144.347656 340.0625 144.464844 361.164062 C 144.460938 361.503906 144.5625 361.8125 144.765625 362.089844 C 144.96875 362.363281 145.234375 362.550781 145.558594 362.652344 C 145.796875 362.726562 170.210938 369.949219 207.394531 366.375 C 221.390625 365.007812 235.152344 362.394531 248.679688 358.53125 C 278.199219 350.175781 313.3125 334.304688 349.757812 304.859375 L 349.800781 304.808594 C 349.867188 304.753906 349.925781 304.691406 349.980469 304.621094 L 350.046875 304.539062 C 350.117188 304.445312 350.171875 304.34375 350.21875 304.234375 C 350.214844 304.21875 350.214844 304.199219 350.21875 304.183594 C 350.25 304.089844 350.269531 303.992188 350.285156 303.894531 C 350.289062 303.855469 350.289062 303.816406 350.285156 303.78125 C 350.292969 303.691406 350.292969 303.601562 350.285156 303.511719 C 350.285156 303.511719 350.285156 303.46875 350.285156 303.445312 C 350.285156 303.421875 349.898438 300.726562 349.109375 295.996094 C 351.183594 294.355469 353.25 292.660156 355.304688 290.917969 C 355.726562 290.546875 355.890625 290.082031 355.804688 289.523438 C 350.652344 258.089844 343.132812 227.230469 333.242188 196.949219 C 323.722656 167.902344 312.695312 142.242188 300.46875 120.6875 Z M 222.949219 7.378906 L 223.132812 7.320312 C 235.335938 3.863281 248.367188 8.757812 254.867188 19.238281 C 260.570312 28.464844 259.453125 39.054688 257.5 46.3125 C 257.160156 47.636719 256.691406 48.917969 256.097656 50.152344 C 255.503906 51.386719 254.796875 52.550781 253.972656 53.644531 C 253.152344 54.742188 252.230469 55.746094 251.214844 56.664062 C 250.195312 57.578125 249.097656 58.382812 247.917969 59.085938 C 247.609375 59.148438 247.339844 59.292969 247.117188 59.515625 C 246.734375 59.71875 246.371094 59.902344 245.945312 60.074219 C 181.171875 87.773438 122.761719 101.183594 105.109375 104.882812 C 108.832031 100.90625 109.917969 95.199219 108.28125 87.855469 C 104.996094 73.152344 92.785156 55.957031 75.789062 51.53125 C 74.886719 51.300781 73.933594 51.09375 72.945312 50.929688 Z M 59.839844 297.421875 C 64.933594 287.84375 81.632812 252.121094 74.121094 208.382812 C 70.851562 189.316406 61.464844 169.460938 52.386719 150.242188 C 37.230469 118.171875 22.910156 87.871094 40.714844 67.902344 C 51.285156 56.054688 63.148438 51.421875 75.023438 54.496094 C 90.820312 58.628906 102.207031 74.734375 105.28125 88.519531 C 106.6875 94.796875 105.867188 99.601562 102.867188 102.789062 C 99.679688 106.195312 94.46875 107.363281 89.929688 107.675781 C 90.367188 107.320312 90.8125 106.933594 91.253906 106.523438 C 95.964844 102.054688 95.414062 94.335938 89.941406 88.214844 C 83.480469 80.988281 71.917969 77.9375 60.628906 87.410156 C 47.140625 98.738281 58.457031 121.523438 70.445312 145.640625 C 76.511719 157.863281 82.789062 170.496094 85.519531 181.390625 C 96.925781 226.824219 99.972656 262.949219 94.6875 291.058594 C 82.855469 295.296875 66.355469 296.921875 59.839844 297.421875 Z M 82.246094 107.148438 C 79.265625 106.523438 77.179688 103.378906 76.167969 101.539062 L 90.664062 95.199219 C 91.855469 98.449219 91.675781 101.90625 89.175781 104.296875 C 86.675781 106.6875 84.359375 107.59375 82.246094 107.148438 Z M 93.414062 308.003906 C 103.957031 277.464844 102.347656 235.757812 88.5 180.640625 C 85.683594 169.46875 79.332031 156.648438 73.191406 144.285156 C 61.761719 121.269531 50.964844 99.535156 62.609375 89.765625 C 72.289062 81.570312 82.183594 84.140625 87.648438 90.261719 C 88.261719 90.945312 88.808594 91.671875 89.296875 92.445312 L 73.472656 99.371094 C 73.429688 99.386719 73.386719 99.410156 73.347656 99.4375 L 73.234375 99.5 L 73.085938 99.617188 L 73.003906 99.683594 C 72.960938 99.730469 72.921875 99.78125 72.886719 99.828125 L 72.820312 99.914062 L 72.738281 100.058594 C 72.738281 100.101562 72.691406 100.140625 72.675781 100.175781 C 72.65625 100.226562 72.640625 100.28125 72.625 100.332031 C 72.621094 100.375 72.621094 100.417969 72.625 100.460938 C 72.621094 100.527344 72.621094 100.59375 72.625 100.660156 C 72.625 100.660156 72.625 100.71875 72.625 100.75 L 72.335938 117.0625 C 72.332031 117.421875 72.441406 117.75 72.664062 118.039062 C 72.839844 118.261719 90.53125 141.125 108.214844 182.34375 C 115.84375 200.363281 122.277344 218.796875 127.519531 237.648438 C 132.761719 256.503906 136.769531 275.613281 139.535156 294.984375 C 120.039062 303.257812 100.253906 306.917969 93.414062 308.003906 Z M 347.09375 302.886719 C 291.773438 339.578125 243.265625 351.425781 212.277344 354.890625 C 182.78125 358.191406 163.136719 354.726562 158.539062 353.773438 L 153.4375 305.628906 C 153.414062 305.425781 153.355469 305.234375 153.257812 305.058594 C 153.160156 304.878906 153.03125 304.726562 152.875 304.597656 C 152.714844 304.472656 152.539062 304.378906 152.34375 304.320312 C 152.148438 304.265625 151.949219 304.246094 151.746094 304.269531 C 151.546875 304.289062 151.355469 304.347656 151.175781 304.445312 C 150.996094 304.542969 150.84375 304.671875 150.71875 304.828125 C 150.589844 304.988281 150.496094 305.164062 150.4375 305.359375 C 150.382812 305.554688 150.363281 305.753906 150.382812 305.957031 L 155.597656 355.195312 C 155.632812 355.515625 155.753906 355.796875 155.964844 356.039062 C 156.175781 356.28125 156.4375 356.441406 156.75 356.523438 C 157.613281 356.738281 178.214844 361.734375 212.449219 357.96875 C 226.8125 356.324219 240.941406 353.515625 254.835938 349.535156 C 276.722656 343.246094 297.703125 334.722656 317.773438 323.957031 C 274.328125 351.34375 234.785156 360.617188 207.230469 363.261719 C 174.976562 366.367188 152.550781 361.257812 147.496094 359.949219 C 147.324219 338.546875 145.734375 317.253906 142.722656 296.066406 C 142.75 295.808594 142.714844 295.558594 142.613281 295.320312 C 139.839844 275.679688 135.804688 256.304688 130.507812 237.195312 C 125.207031 218.082031 118.695312 199.394531 110.960938 181.132812 C 94.46875 142.691406 77.890625 119.980469 75.34375 116.601562 L 75.527344 106.066406 C 76.640625 107.480469 77.988281 108.605469 79.578125 109.441406 C 79.652344 109.644531 79.761719 109.824219 79.914062 109.976562 C 80.070312 110.132812 96.027344 126.105469 114.109375 163.359375 C 130.8125 197.753906 152.78125 257.847656 162.65625 348.820312 C 162.6875 349.179688 162.828125 349.488281 163.085938 349.746094 C 163.339844 350 163.648438 350.144531 164.007812 350.175781 C 164.277344 350.175781 191.34375 353.15625 228.234375 347.292969 C 239.5 345.511719 250.621094 343.066406 261.597656 339.964844 C 287.996094 332.515625 318.183594 319.757812 346.332031 298.15625 C 346.699219 300.339844 346.949219 301.949219 347.09375 302.886719 Z M 352.644531 289.121094 C 310.066406 325.054688 261.328125 338.921875 227.863281 344.238281 C 195.75 349.328125 171.203125 347.71875 165.574219 347.21875 C 155.582031 256.394531 133.558594 196.296875 116.785156 161.808594 C 102.75 132.957031 90.226562 116.980469 84.84375 110.769531 C 88.566406 110.953125 94.269531 110.769531 99.199219 108.777344 C 99.519531 108.964844 99.863281 109.027344 100.234375 108.964844 C 100.605469 108.890625 121.078125 105.085938 152.207031 96.265625 C 184.5625 87.152344 216.210938 76.03125 247.152344 62.898438 C 247.480469 62.765625 247.800781 62.609375 248.121094 62.449219 C 289.367188 93.0625 315.566406 152.894531 330.308594 197.859375 C 340.046875 227.71875 347.492188 258.140625 352.644531 289.121094 Z M 352.644531 289.121094"/><path fill="#231F20" d="M 273.644531 187.960938 L 212.71875 209.753906 C 212.382812 209.871094 212.121094 210.078125 211.933594 210.378906 C 211.742188 210.679688 211.667969 211.003906 211.703125 211.355469 C 211.855469 212.84375 215.570312 247.503906 235.589844 258.019531 C 241.886719 261.324219 249.074219 261.847656 257.03125 259.589844 C 260.972656 258.433594 264.734375 256.84375 268.3125 254.824219 C 276.503906 250.355469 281.824219 243.761719 284.207031 235.316406 C 290.058594 214.535156 276.09375 189.6875 275.496094 188.644531 C 275.3125 188.324219 275.042969 188.097656 274.695312 187.96875 C 274.34375 187.839844 273.996094 187.835938 273.644531 187.960938 Z M 281.246094 234.496094 C 279.101562 242.117188 274.246094 248.054688 266.832031 252.136719 C 255.222656 258.527344 245.203125 259.582031 237.050781 255.300781 C 220.460938 246.59375 215.761719 218.378906 214.929688 212.234375 L 273.457031 191.296875 C 276.054688 196.355469 286.078125 217.351562 281.246094 234.496094 Z M 281.246094 234.496094"/><path fill="#FFF" d="M 219.089844 229.648438 L 279.75 206.105469 L 273.433594 191.28125 L 214.90625 212.21875 C 214.90625 212.21875 216.8125 226.960938 219.089844 229.648438 Z M 219.089844 229.648438"/><path fill="#C65964" d="M 246.578125 233.460938 C 244.648438 234.007812 242.796875 234.75 241.019531 235.683594 C 239.246094 236.617188 237.585938 237.726562 236.042969 239.007812 C 234.5 240.292969 233.105469 241.722656 231.863281 243.296875 C 230.621094 244.871094 229.554688 246.558594 228.664062 248.359375 C 230.988281 251.238281 233.777344 253.5625 237.027344 255.332031 C 245.214844 259.621094 255.222656 258.554688 266.808594 252.164062 C 270.875 249.996094 274.273438 247.054688 277.007812 243.347656 C 276.132812 242.234375 275.179688 241.191406 274.148438 240.21875 C 273.117188 239.246094 272.023438 238.355469 270.859375 237.546875 C 269.699219 236.734375 268.484375 236.015625 267.214844 235.382812 C 265.949219 234.753906 264.640625 234.21875 263.292969 233.78125 C 261.945312 233.34375 260.574219 233.007812 259.179688 232.773438 C 257.78125 232.539062 256.375 232.410156 254.960938 232.382812 C 253.542969 232.355469 252.132812 232.429688 250.730469 232.613281 C 249.324219 232.792969 247.941406 233.078125 246.578125 233.460938 Z M 246.578125 233.460938"/><path fill="#E57F86" d="M 266.832031 252.136719 C 270.882812 249.972656 274.277344 247.042969 277.007812 243.347656 C 276.152344 242.261719 275.222656 241.242188 274.214844 240.292969 C 273.382812 239.75 272.519531 239.253906 271.632812 238.804688 C 270.742188 238.359375 269.832031 237.960938 268.902344 237.609375 C 267.96875 237.261719 267.023438 236.960938 266.058594 236.714844 C 265.09375 236.46875 264.117188 236.277344 263.132812 236.136719 C 262.148438 235.996094 261.160156 235.90625 260.164062 235.875 C 259.167969 235.84375 258.175781 235.863281 257.183594 235.9375 C 256.191406 236.011719 255.207031 236.140625 254.226562 236.324219 C 253.25 236.507812 252.285156 236.742188 251.332031 237.027344 C 250.378906 237.316406 249.445312 237.652344 248.527344 238.042969 C 247.613281 238.429688 246.71875 238.867188 245.851562 239.355469 C 244.980469 239.839844 244.140625 240.371094 243.332031 240.949219 C 242.519531 241.523438 241.742188 242.144531 241 242.804688 C 240.253906 243.46875 239.550781 244.167969 238.882812 244.90625 C 238.214844 245.644531 237.589844 246.417969 237.003906 247.222656 C 236.421875 248.027344 235.882812 248.863281 235.390625 249.730469 C 234.898438 250.59375 234.453125 251.484375 234.054688 252.394531 C 234.71875 253.230469 235.410156 254.035156 236.125 254.792969 C 236.421875 254.964844 236.722656 255.144531 237.027344 255.300781 C 245.203125 259.589844 255.222656 258.527344 266.832031 252.136719 Z M 266.832031 252.136719"/><path fill="#D8AE6A" d="M 131.933594 100.710938 C 112.332031 105.71875 100.246094 107.96875 99.957031 108.019531 C 99.589844 108.085938 99.242188 108.027344 98.921875 107.832031 C 93.992188 109.84375 88.3125 110.015625 84.566406 109.828125 C 89.949219 116.003906 102.4375 131.980469 116.507812 160.84375 C 133.273438 195.320312 155.304688 255.433594 165.296875 346.242188 C 170.925781 346.726562 195.472656 348.335938 227.585938 343.265625 C 261.054688 337.960938 309.789062 324.101562 352.371094 288.148438 C 352.027344 285.914062 350.972656 279.425781 349.078125 269.921875 C 325.15625 312.117188 192.117188 336.957031 184.535156 296.542969 C 176.445312 253.339844 143.488281 166.117188 125.964844 138.3125 C 109.859375 112.757812 131.933594 100.710938 131.933594 100.710938 Z M 131.933594 100.710938"/><path fill="#FFE3B6" d="M 349.414062 271.195312 C 344.496094 246.371094 338.128906 221.925781 330.308594 197.859375 C 315.566406 152.894531 289.359375 93.0625 248.121094 62.449219 C 247.800781 62.609375 247.480469 62.765625 247.152344 62.898438 C 234.988281 68.113281 223.042969 72.804688 211.554688 77.050781 C 211.554688 77.050781 243.867188 68.789062 267.097656 93.898438 C 289.777344 118.402344 333.78125 209.449219 349.078125 269.953125 C 349.191406 270.359375 349.304688 270.777344 349.414062 271.195312 Z M 349.414062 271.195312"/><path fill="#BC8C46" d="M 76.289062 54.90625 C 24.558594 77.675781 47.445312 113.746094 63.554688 141.878906 C 79.882812 170.355469 92.152344 211.804688 92.152344 211.804688 C 90.40625 202.160156 88.199219 192.019531 85.535156 181.382812 C 82.804688 170.496094 76.527344 157.863281 70.457031 145.632812 C 58.472656 121.515625 47.152344 98.710938 60.644531 87.402344 C 71.933594 77.929688 83.496094 80.980469 89.957031 88.207031 C 95.429688 94.328125 95.980469 102.03125 91.269531 106.515625 C 90.828125 106.933594 90.382812 107.3125 89.941406 107.667969 C 94.410156 107.355469 99.667969 106.179688 102.882812 102.785156 C 105.859375 99.59375 106.703125 94.792969 105.296875 88.511719 C 102.289062 75.105469 91.425781 59.492188 76.289062 54.90625 Z M 76.289062 54.90625"/><path fill="#BC8C46" d="M 139.460938 295 C 136.695312 275.628906 132.6875 256.515625 127.445312 237.664062 C 122.203125 218.8125 115.769531 200.378906 108.140625 182.359375 C 90.492188 141.132812 72.765625 118.304688 72.585938 118.050781 C 72.585938 118.050781 133.132812 235.464844 128.585938 299.171875 C 132.164062 297.933594 135.820312 296.550781 139.460938 295 Z M 139.460938 295"/><path fill="#BC8C46" d="M 72.550781 100.765625 C 72.550781 100.765625 72.550781 100.707031 72.550781 100.675781 C 72.546875 100.609375 72.546875 100.542969 72.550781 100.472656 C 72.546875 100.433594 72.546875 100.390625 72.550781 100.347656 C 72.566406 100.292969 72.582031 100.242188 72.601562 100.191406 C 72.601562 100.152344 72.640625 100.117188 72.664062 100.070312 L 72.742188 99.929688 L 72.8125 99.839844 C 72.847656 99.796875 72.886719 99.746094 72.929688 99.699219 L 73.011719 99.632812 L 73.160156 99.511719 L 73.273438 99.453125 C 73.3125 99.425781 73.355469 99.402344 73.398438 99.386719 L 89.222656 92.460938 C 88.734375 91.6875 88.1875 90.957031 87.574219 90.277344 C 86.71875 89.289062 85.757812 88.417969 84.695312 87.660156 C 83.628906 86.898438 82.488281 86.277344 81.277344 85.792969 C 80.0625 85.308594 78.808594 84.972656 77.515625 84.789062 C 76.222656 84.601562 74.921875 84.574219 73.621094 84.699219 C 58.390625 89.859375 60.480469 109.1875 68.410156 119.238281 C 76.339844 129.285156 87.628906 149.773438 87.628906 149.773438 L 92.792969 150.519531 C 81.46875 129.53125 72.691406 118.207031 72.574219 118.050781 C 72.351562 117.765625 72.242188 117.4375 72.246094 117.078125 Z M 72.550781 100.765625"/><path fill="#FFE3B6" d="M 125.167969 300.316406 C 111.222656 304.445312 101.34375 300.503906 101.34375 300.503906 C 110.976562 268.035156 95.445312 212.613281 95.445312 212.613281 C 102.519531 252.269531 101.839844 283.699219 93.441406 308.027344 C 104.210938 306.253906 114.785156 303.683594 125.167969 300.316406 Z M 125.167969 300.316406"/><path fill="#FFE3B6" d="M 69.734375 289.523438 C 86.519531 256.269531 72.832031 202.089844 72.832031 202.089844 C 73.332031 204.191406 73.773438 206.285156 74.128906 208.371094 C 81.632812 252.121094 64.933594 287.84375 59.839844 297.421875 C 66.355469 296.921875 82.855469 295.296875 94.6875 291.050781 C 95.019531 289.292969 95.316406 287.507812 95.578125 285.6875 C 80.890625 292.863281 69.734375 289.523438 69.734375 289.523438 Z M 69.734375 289.523438"/><path fill="#D8AE6A" d="M 241.679688 8.273438 C 250.675781 12.347656 268.921875 27.808594 245.367188 46.257812 C 218.675781 67.152344 108.28125 87.871094 108.28125 87.871094 C 109.917969 95.195312 108.847656 100.921875 105.109375 104.898438 C 122.761719 101.175781 181.171875 87.769531 245.945312 60.089844 C 246.339844 59.917969 246.734375 59.734375 247.117188 59.53125 C 247.339844 59.304688 247.609375 59.164062 247.917969 59.097656 C 249.097656 58.402344 250.199219 57.597656 251.21875 56.683594 C 252.238281 55.769531 253.160156 54.765625 253.984375 53.671875 C 254.808594 52.578125 255.519531 51.414062 256.113281 50.179688 C 256.707031 48.945312 257.179688 47.667969 257.523438 46.339844 C 259.476562 39.085938 260.589844 28.464844 254.886719 19.265625 C 253.332031 16.773438 251.425781 14.585938 249.167969 12.707031 C 246.910156 10.828125 244.414062 9.347656 241.679688 8.273438 Z M 241.679688 8.273438"/><path fill="#D8AE6A" d="M 238.695312 7.238281 L 238.085938 7.074219 C 238.277344 7.164062 238.480469 7.21875 238.695312 7.238281 Z M 238.695312 7.238281"/><path fill="#FFE3B6" d="M 256.265625 23.390625 C 256.6875 24.105469 257.15625 24.792969 257.664062 25.449219 C 256.992188 23.269531 256.058594 21.207031 254.867188 19.265625 C 248.367188 8.726562 235.335938 3.863281 223.132812 7.320312 L 222.949219 7.378906 L 73.996094 50.625 L 77.972656 52.1875 C 79.207031 52.597656 80.417969 53.074219 81.605469 53.617188 L 227.855469 12.191406 C 227.855469 12.191406 246.578125 7.289062 256.265625 23.390625 Z M 256.265625 23.390625"/><path fill="#FFE3B6" d="M 238.136719 11.253906 C 238.195312 11.457031 238.214844 11.667969 238.195312 11.890625 C 238.175781 12.109375 238.121094 12.339844 238.027344 12.582031 C 237.9375 12.820312 237.804688 13.066406 237.640625 13.324219 C 237.472656 13.578125 237.269531 13.839844 237.027344 14.109375 C 236.789062 14.375 236.515625 14.652344 236.207031 14.929688 C 235.898438 15.207031 235.554688 15.492188 235.179688 15.777344 C 234.800781 16.066406 234.394531 16.355469 233.953125 16.644531 C 233.515625 16.9375 233.042969 17.230469 232.546875 17.523438 C 232.046875 17.820312 231.519531 18.113281 230.96875 18.40625 C 230.414062 18.699219 229.835938 18.992188 229.234375 19.28125 C 228.632812 19.574219 228.007812 19.859375 227.363281 20.144531 C 226.71875 20.429688 226.054688 20.707031 225.371094 20.984375 C 224.6875 21.257812 223.992188 21.527344 223.277344 21.792969 C 222.566406 22.054688 221.839844 22.3125 221.105469 22.5625 C 220.367188 22.8125 219.621094 23.054688 218.871094 23.285156 C 218.117188 23.519531 217.359375 23.742188 216.597656 23.957031 C 215.835938 24.171875 215.070312 24.378906 214.308594 24.570312 C 213.542969 24.765625 212.78125 24.945312 212.023438 25.117188 C 211.265625 25.289062 210.511719 25.449219 209.765625 25.59375 C 209.019531 25.742188 208.285156 25.875 207.558594 25.996094 C 206.832031 26.117188 206.121094 26.222656 205.421875 26.316406 C 204.722656 26.414062 204.039062 26.492188 203.375 26.558594 C 202.710938 26.625 202.066406 26.675781 201.441406 26.714844 C 200.816406 26.753906 200.210938 26.777344 199.632812 26.785156 C 199.054688 26.792969 198.5 26.789062 197.972656 26.769531 C 197.445312 26.75 196.949219 26.714844 196.476562 26.667969 C 196.007812 26.617188 195.566406 26.554688 195.15625 26.480469 C 194.746094 26.402344 194.371094 26.3125 194.027344 26.207031 C 193.683594 26.101562 193.375 25.984375 193.097656 25.855469 C 192.824219 25.722656 192.582031 25.582031 192.378906 25.425781 C 192.175781 25.269531 192.007812 25.101562 191.875 24.921875 C 191.742188 24.742188 191.648438 24.550781 191.59375 24.351562 C 191.535156 24.148438 191.515625 23.9375 191.535156 23.714844 C 191.554688 23.492188 191.609375 23.261719 191.703125 23.023438 C 191.796875 22.785156 191.925781 22.535156 192.09375 22.28125 C 192.261719 22.027344 192.464844 21.765625 192.703125 21.496094 C 192.941406 21.226562 193.214844 20.953125 193.527344 20.675781 C 193.835938 20.394531 194.175781 20.113281 194.554688 19.824219 C 194.929688 19.539062 195.339844 19.25 195.777344 18.957031 C 196.21875 18.667969 196.6875 18.375 197.1875 18.078125 C 197.683594 17.785156 198.210938 17.492188 198.765625 17.195312 C 199.316406 16.902344 199.894531 16.613281 200.496094 16.320312 C 201.097656 16.03125 201.722656 15.742188 202.367188 15.460938 C 203.015625 15.175781 203.679688 14.894531 204.359375 14.621094 C 205.042969 14.34375 205.742188 14.074219 206.453125 13.8125 C 207.167969 13.546875 207.890625 13.292969 208.628906 13.042969 C 209.363281 12.792969 210.109375 12.550781 210.863281 12.316406 C 211.617188 12.082031 212.371094 11.859375 213.136719 11.644531 C 213.898438 11.429688 214.660156 11.226562 215.425781 11.035156 C 216.1875 10.839844 216.949219 10.65625 217.707031 10.488281 C 218.46875 10.316406 219.21875 10.15625 219.964844 10.011719 C 220.710938 9.863281 221.445312 9.730469 222.171875 9.609375 C 222.898438 9.488281 223.609375 9.378906 224.308594 9.285156 C 225.007812 9.191406 225.691406 9.113281 226.355469 9.046875 C 227.023438 8.980469 227.667969 8.925781 228.292969 8.890625 C 228.917969 8.851562 229.519531 8.828125 230.097656 8.820312 C 230.675781 8.808594 231.230469 8.816406 231.757812 8.835938 C 232.285156 8.855469 232.785156 8.890625 233.253906 8.9375 C 233.726562 8.984375 234.164062 9.046875 234.574219 9.125 C 234.984375 9.203125 235.359375 9.292969 235.703125 9.398438 C 236.046875 9.5 236.359375 9.617188 236.632812 9.75 C 236.910156 9.878906 237.148438 10.023438 237.355469 10.179688 C 237.558594 10.335938 237.726562 10.503906 237.855469 10.683594 C 237.988281 10.863281 238.082031 11.050781 238.136719 11.253906 Z M 238.136719 11.253906"/><path fill="#FFE3B6" d="M 256.65625 75.347656 C 257.808594 75.945312 258.917969 76.597656 259.988281 77.300781 C 261.058594 78.003906 262.0625 78.75 263.007812 79.53125 C 263.953125 80.316406 264.816406 81.121094 265.601562 81.953125 C 266.386719 82.785156 267.074219 83.625 267.667969 84.476562 C 268.261719 85.324219 268.75 86.164062 269.128906 86.996094 C 269.511719 87.828125 269.777344 88.636719 269.929688 89.421875 C 270.082031 90.207031 270.117188 90.953125 270.035156 91.660156 C 269.953125 92.367188 269.757812 93.019531 269.445312 93.621094 C 269.132812 94.222656 268.710938 94.761719 268.179688 95.234375 C 267.648438 95.707031 267.019531 96.109375 266.289062 96.433594 C 265.5625 96.761719 264.746094 97.007812 263.847656 97.175781 C 262.949219 97.34375 261.980469 97.429688 260.945312 97.429688 C 259.910156 97.433594 258.824219 97.351562 257.695312 97.191406 C 256.5625 97.027344 255.40625 96.785156 254.222656 96.460938 C 253.039062 96.140625 251.851562 95.742188 250.660156 95.273438 C 249.46875 94.804688 248.296875 94.269531 247.148438 93.671875 C 245.996094 93.074219 244.882812 92.421875 243.816406 91.71875 C 242.746094 91.011719 241.738281 90.269531 240.792969 89.488281 C 239.851562 88.703125 238.984375 87.894531 238.203125 87.066406 C 237.417969 86.234375 236.726562 85.394531 236.132812 84.542969 C 235.539062 83.695312 235.054688 82.855469 234.671875 82.023438 C 234.292969 81.191406 234.027344 80.382812 233.875 79.597656 C 233.722656 78.8125 233.6875 78.066406 233.769531 77.359375 C 233.847656 76.652344 234.046875 76 234.359375 75.398438 C 234.671875 74.796875 235.09375 74.257812 235.625 73.785156 C 236.152344 73.3125 236.785156 72.910156 237.511719 72.585938 C 238.242188 72.257812 239.058594 72.011719 239.957031 71.84375 C 240.855469 71.675781 241.824219 71.589844 242.859375 71.585938 C 243.894531 71.585938 244.976562 71.664062 246.109375 71.828125 C 247.242188 71.992188 248.398438 72.234375 249.582031 72.558594 C 250.765625 72.878906 251.953125 73.277344 253.144531 73.746094 C 254.332031 74.214844 255.503906 74.75 256.65625 75.347656 Z M 256.65625 75.347656"/><path fill="#FFE3B6" d="M 230 87.492188 C 230 87.992188 229.949219 88.484375 229.851562 88.972656 C 229.753906 89.464844 229.609375 89.9375 229.421875 90.398438 C 229.230469 90.859375 228.996094 91.296875 228.71875 91.710938 C 228.441406 92.128906 228.125 92.511719 227.773438 92.863281 C 227.421875 93.214844 227.039062 93.53125 226.625 93.808594 C 226.207031 94.085938 225.769531 94.320312 225.308594 94.511719 C 224.847656 94.703125 224.375 94.847656 223.886719 94.941406 C 223.398438 95.039062 222.902344 95.089844 222.402344 95.089844 C 221.90625 95.089844 221.410156 95.039062 220.921875 94.941406 C 220.433594 94.847656 219.957031 94.703125 219.496094 94.511719 C 219.035156 94.320312 218.597656 94.085938 218.183594 93.808594 C 217.769531 93.53125 217.386719 93.214844 217.035156 92.863281 C 216.679688 92.511719 216.367188 92.128906 216.089844 91.710938 C 215.8125 91.296875 215.578125 90.859375 215.386719 90.398438 C 215.195312 89.9375 215.054688 89.464844 214.957031 88.972656 C 214.859375 88.484375 214.808594 87.992188 214.808594 87.492188 C 214.808594 86.992188 214.859375 86.5 214.957031 86.011719 C 215.054688 85.519531 215.195312 85.046875 215.386719 84.585938 C 215.578125 84.125 215.8125 83.6875 216.089844 83.269531 C 216.367188 82.855469 216.679688 82.472656 217.035156 82.121094 C 217.386719 81.765625 217.769531 81.453125 218.183594 81.175781 C 218.597656 80.898438 219.035156 80.664062 219.496094 80.472656 C 219.957031 80.28125 220.433594 80.136719 220.921875 80.039062 C 221.410156 79.945312 221.90625 79.894531 222.402344 79.894531 C 222.902344 79.894531 223.398438 79.945312 223.886719 80.039062 C 224.375 80.136719 224.847656 80.28125 225.308594 80.472656 C 225.769531 80.664062 226.207031 80.898438 226.625 81.175781 C 227.039062 81.453125 227.421875 81.765625 227.773438 82.121094 C 228.125 82.472656 228.441406 82.855469 228.71875 83.269531 C 228.996094 83.6875 229.230469 84.125 229.421875 84.585938 C 229.609375 85.046875 229.753906 85.519531 229.851562 86.011719 C 229.949219 86.5 230 86.992188 230 87.492188 Z M 230 87.492188"/><path fill="#FFE3B6" d="M 192.625 30.472656 C 192.683594 30.675781 192.683594 30.894531 192.628906 31.125 C 192.574219 31.355469 192.460938 31.59375 192.296875 31.84375 C 192.128906 32.09375 191.910156 32.347656 191.636719 32.605469 C 191.367188 32.867188 191.046875 33.125 190.683594 33.382812 C 190.316406 33.640625 189.910156 33.894531 189.464844 34.144531 C 189.019531 34.390625 188.542969 34.628906 188.035156 34.855469 C 187.527344 35.085938 186.996094 35.296875 186.445312 35.496094 C 185.890625 35.695312 185.328125 35.878906 184.753906 36.039062 C 184.179688 36.203125 183.605469 36.34375 183.03125 36.464844 C 182.457031 36.582031 181.894531 36.679688 181.339844 36.753906 C 180.789062 36.824219 180.257812 36.875 179.746094 36.894531 C 179.238281 36.917969 178.757812 36.914062 178.3125 36.886719 C 177.867188 36.859375 177.460938 36.804688 177.09375 36.726562 C 176.726562 36.648438 176.40625 36.546875 176.132812 36.421875 C 175.859375 36.296875 175.640625 36.152344 175.472656 35.984375 C 175.304688 35.816406 175.191406 35.632812 175.132812 35.429688 C 175.074219 35.226562 175.074219 35.007812 175.128906 34.777344 C 175.1875 34.546875 175.296875 34.308594 175.464844 34.058594 C 175.628906 33.808594 175.851562 33.554688 176.121094 33.296875 C 176.394531 33.035156 176.710938 32.777344 177.078125 32.519531 C 177.441406 32.261719 177.847656 32.007812 178.292969 31.757812 C 178.738281 31.511719 179.214844 31.273438 179.726562 31.046875 C 180.234375 30.816406 180.765625 30.605469 181.316406 30.40625 C 181.867188 30.207031 182.429688 30.023438 183.003906 29.863281 C 183.578125 29.699219 184.152344 29.558594 184.730469 29.4375 C 185.304688 29.320312 185.867188 29.222656 186.417969 29.148438 C 186.972656 29.078125 187.503906 29.027344 188.011719 29.007812 C 188.523438 28.984375 189 28.988281 189.445312 29.015625 C 189.894531 29.042969 190.300781 29.097656 190.667969 29.175781 C 191.035156 29.253906 191.351562 29.355469 191.625 29.480469 C 191.898438 29.605469 192.121094 29.75 192.289062 29.917969 C 192.457031 30.085938 192.570312 30.269531 192.625 30.472656 Z M 192.625 30.472656"/><path fill="#472700" d="M 253.585938 241.113281 C 251.164062 238.820312 248.558594 236.761719 245.773438 234.929688 C 240.265625 231.25 234.53125 231.316406 230.066406 236.464844 C 229.949219 236.589844 229.871094 236.734375 229.828125 236.902344 C 229.789062 237.070312 229.792969 237.234375 229.839844 237.398438 C 229.886719 237.566406 229.96875 237.707031 230.089844 237.828125 C 230.210938 237.949219 230.355469 238.035156 230.519531 238.082031 C 232.269531 238.515625 234.046875 238.738281 235.851562 238.742188 C 238.136719 238.625 240.316406 237.9375 242.648438 238.085938 C 244.695312 238.265625 246.65625 238.777344 248.53125 239.621094 C 250.511719 240.464844 254.5625 242.199219 255.328125 244.367188 C 255.359375 244.457031 255.421875 244.5 255.515625 244.5 C 255.613281 244.5 255.675781 244.457031 255.707031 244.367188 C 256.035156 242.914062 254.546875 241.984375 253.585938 241.113281 Z M 253.585938 241.113281"/><g clip-path="url(#a)"><path fill="#472700" d="M 356.191406 289.464844 C 351.035156 258.007812 343.507812 227.132812 333.609375 196.832031 C 324.078125 167.785156 313.042969 142.078125 300.804688 120.496094 C 286.078125 94.53125 269.535156 74.457031 251.664062 60.769531 C 253.917969 59.101562 255.832031 57.105469 257.40625 54.785156 C 258.980469 52.464844 260.121094 49.945312 260.835938 47.234375 C 262.960938 39.316406 264.15625 27.726562 257.800781 17.441406 C 250.496094 5.628906 235.878906 0.125 222.195312 3.996094 L 221.988281 4.058594 L 59.714844 51.183594 L 59.59375 51.226562 C 52.96875 53.015625 45.621094 57.183594 38.136719 65.609375 C 18.78125 87.285156 33.605469 118.589844 49.261719 151.734375 C 58.242188 170.734375 67.523438 190.375 70.71875 208.972656 C 79.25 258.675781 55.753906 297.71875 55.492188 298.136719 C 55.304688 298.441406 55.210938 298.773438 55.207031 299.132812 C 55.203125 299.488281 55.296875 299.824219 55.480469 300.128906 C 55.664062 300.4375 55.914062 300.675781 56.230469 300.84375 C 56.546875 301.011719 56.886719 301.082031 57.242188 301.0625 C 58.144531 301.019531 78.230469 299.960938 93.480469 295.105469 C 92.414062 299.902344 91.03125 304.609375 89.324219 309.21875 C 89.265625 309.375 89.230469 309.53125 89.214844 309.695312 C 89.199219 309.863281 89.203125 310.027344 89.226562 310.1875 C 89.253906 310.351562 89.300781 310.507812 89.367188 310.660156 C 89.433594 310.8125 89.515625 310.953125 89.621094 311.082031 C 89.722656 311.210938 89.839844 311.324219 89.972656 311.425781 C 90.101562 311.523438 90.246094 311.605469 90.398438 311.667969 C 90.550781 311.730469 90.710938 311.773438 90.875 311.792969 C 91.039062 311.816406 91.199219 311.816406 91.363281 311.796875 C 100.589844 310.4375 109.6875 308.476562 118.652344 305.910156 C 125.777344 303.917969 132.761719 301.511719 139.605469 298.695312 C 142.460938 319.414062 143.949219 340.230469 144.070312 361.148438 C 144.074219 361.566406 144.199219 361.945312 144.453125 362.285156 C 144.703125 362.621094 145.03125 362.851562 145.433594 362.972656 C 146.421875 363.277344 170.152344 370.292969 207.417969 366.695312 C 221.4375 365.332031 235.222656 362.714844 248.769531 358.847656 C 278.328125 350.472656 313.492188 334.578125 349.980469 305.097656 C 350.003906 305.082031 350.019531 305.0625 350.03125 305.039062 C 350.121094 304.96875 350.203125 304.886719 350.269531 304.792969 L 350.347656 304.703125 C 350.429688 304.582031 350.5 304.453125 350.554688 304.316406 L 350.554688 304.257812 C 350.597656 304.136719 350.628906 304.011719 350.644531 303.886719 C 350.648438 303.84375 350.648438 303.800781 350.644531 303.757812 C 350.652344 303.640625 350.652344 303.523438 350.644531 303.410156 C 350.644531 303.410156 350.644531 303.355469 350.644531 303.335938 C 350.644531 303.3125 350.265625 300.699219 349.503906 296.117188 C 351.519531 294.519531 353.527344 292.871094 355.527344 291.171875 C 355.777344 290.960938 355.960938 290.707031 356.078125 290.402344 C 356.195312 290.101562 356.234375 289.789062 356.191406 289.464844 Z M 223.058594 7.742188 C 235.121094 4.257812 248.097656 9.054688 254.546875 19.46875 C 260.183594 28.578125 259.066406 39.054688 257.144531 46.242188 C 256.804688 47.539062 256.34375 48.789062 255.761719 49.992188 C 255.179688 51.199219 254.488281 52.335938 253.683594 53.40625 C 252.878906 54.476562 251.980469 55.460938 250.988281 56.355469 C 249.992188 57.25 248.917969 58.039062 247.769531 58.726562 C 247.429688 58.808594 247.132812 58.96875 246.878906 59.210938 C 246.519531 59.390625 246.132812 59.570312 245.789062 59.726562 C 182.324219 86.851562 124.996094 100.265625 106.144531 104.273438 C 109.351562 100.25 110.203125 94.710938 108.652344 87.769531 C 105.347656 72.953125 93.03125 55.652344 75.855469 51.183594 C 75.433594 51.078125 75 50.972656 74.554688 50.875 Z M 60.503906 296.972656 C 65.960938 286.507812 81.871094 251.261719 74.5 208.339844 C 71.21875 189.226562 61.84375 169.339844 52.730469 150.101562 C 37.632812 118.117188 23.367188 87.929688 41.003906 68.164062 C 51.472656 56.394531 63.199219 51.828125 74.925781 54.90625 C 90.5625 58.980469 101.855469 74.957031 104.90625 88.640625 C 106.277344 94.785156 105.496094 99.460938 102.585938 102.550781 C 99.675781 105.644531 95.214844 106.777344 91.089844 107.191406 L 91.519531 106.796875 C 96.382812 102.171875 95.839844 94.246094 90.226562 87.953125 C 83.859375 80.832031 71.804688 77.527344 60.382812 87.121094 C 46.664062 98.640625 58.046875 121.554688 70.101562 145.8125 C 76.160156 158.011719 82.429688 170.628906 85.148438 181.472656 C 96.507812 226.738281 99.5625 262.710938 94.351562 290.769531 C 82.972656 294.796875 67.367188 296.429688 60.503906 296.972656 Z M 88.871094 104.011719 C 86.511719 106.246094 84.308594 107.183594 82.328125 106.761719 C 79.855469 106.238281 77.859375 103.660156 76.710938 101.71875 L 90.441406 95.707031 C 91.433594 98.714844 91.1875 101.828125 88.871094 104.019531 Z M 93.984375 307.519531 C 104.320312 276.980469 102.636719 235.367188 88.871094 180.535156 C 86.050781 169.289062 79.691406 156.476562 73.535156 144.097656 C 62.171875 121.234375 51.441406 99.632812 62.855469 90.046875 C 72.371094 82.0625 82.019531 84.527344 87.367188 90.507812 C 87.859375 91.066406 88.3125 91.652344 88.730469 92.265625 L 73.316406 98.96875 L 73.183594 99.042969 L 73.019531 99.140625 C 72.960938 99.179688 72.90625 99.222656 72.855469 99.269531 L 72.730469 99.371094 L 72.59375 99.527344 L 72.5 99.65625 L 72.402344 99.828125 C 72.371094 99.875 72.34375 99.929688 72.320312 99.984375 C 72.296875 100.046875 72.277344 100.109375 72.261719 100.175781 C 72.238281 100.226562 72.222656 100.28125 72.207031 100.332031 C 72.207031 100.421875 72.207031 100.511719 72.207031 100.601562 C 72.210938 100.632812 72.210938 100.664062 72.207031 100.699219 L 71.925781 116.996094 C 71.917969 117.449219 72.054688 117.855469 72.335938 118.214844 C 72.503906 118.4375 90.203125 141.253906 107.828125 182.433594 C 115.433594 200.390625 121.855469 218.761719 127.089844 237.550781 C 132.324219 256.335938 136.328125 275.382812 139.097656 294.6875 C 120.3125 302.679688 101.296875 306.328125 93.984375 307.527344 Z M 346.675781 302.699219 C 291.496094 339.199219 243.183594 351.039062 212.277344 354.496094 C 183.351562 357.734375 163.929688 354.496094 158.886719 353.445312 L 153.824219 305.582031 C 153.792969 305.335938 153.714844 305.101562 153.589844 304.882812 C 153.464844 304.664062 153.304688 304.480469 153.109375 304.324219 C 152.914062 304.167969 152.695312 304.054688 152.453125 303.988281 C 152.210938 303.917969 151.96875 303.894531 151.71875 303.921875 C 151.46875 303.949219 151.234375 304.019531 151.011719 304.136719 C 150.792969 304.257812 150.601562 304.414062 150.441406 304.605469 C 150.28125 304.796875 150.164062 305.015625 150.089844 305.253906 C 150.011719 305.492188 149.984375 305.734375 150.003906 305.984375 L 155.214844 355.234375 C 155.261719 355.632812 155.414062 355.984375 155.679688 356.285156 C 155.945312 356.589844 156.269531 356.789062 156.660156 356.886719 C 157.523438 357.101562 178.1875 362.144531 212.5 358.339844 C 226.878906 356.699219 241.027344 353.886719 254.941406 349.902344 C 273.390625 344.621094 291.207031 337.714844 308.398438 329.1875 C 268.664062 352.277344 232.78125 360.417969 207.238281 362.875 C 175.585938 365.929688 153.414062 361.058594 147.875 359.648438 C 147.691406 338.34375 146.105469 317.144531 143.109375 296.050781 C 143.125 295.773438 143.085938 295.503906 142.992188 295.246094 C 140.214844 275.59375 136.171875 256.210938 130.871094 237.085938 C 125.566406 217.960938 119.046875 199.261719 111.3125 180.988281 C 95 142.890625 78.550781 120.210938 75.730469 116.464844 L 75.894531 107.042969 C 76.863281 108.121094 77.988281 109 79.265625 109.679688 C 79.363281 109.886719 79.492188 110.070312 79.652344 110.230469 C 79.808594 110.386719 95.742188 126.335938 113.796875 163.554688 C 130.476562 197.917969 152.417969 257.960938 162.273438 348.8125 C 162.324219 349.261719 162.507812 349.644531 162.824219 349.964844 C 163.144531 350.28125 163.523438 350.46875 163.972656 350.519531 C 164.242188 350.519531 191.355469 353.496094 228.300781 347.628906 C 239.582031 345.84375 250.71875 343.398438 261.707031 340.292969 C 287.996094 332.84375 317.996094 320.183594 346.066406 298.804688 C 346.339844 300.535156 346.542969 301.84375 346.675781 302.707031 Z M 227.824219 343.835938 C 196.308594 348.835938 172.082031 347.367188 165.921875 346.863281 C 155.910156 256.164062 133.90625 196.109375 117.125 161.648438 C 103.558594 133.746094 91.394531 117.859375 85.707031 111.214844 C 89.429688 111.328125 94.589844 111.035156 99.160156 109.226562 C 99.527344 109.394531 99.910156 109.441406 100.308594 109.367188 C 100.679688 109.300781 121.152344 105.488281 152.3125 96.667969 C 184.679688 87.535156 216.34375 76.398438 247.300781 63.253906 C 247.570312 63.144531 247.824219 63.007812 248.082031 62.890625 C 289.136719 93.480469 315.242188 153.132812 329.984375 197.972656 C 339.679688 227.746094 347.09375 258.078125 352.230469 288.964844 C 309.769531 324.734375 261.195312 338.550781 227.824219 343.835938 Z M 227.824219 343.835938"/></g><path fill="#472700" d="M 273.515625 187.597656 L 212.582031 209.398438 C 212.171875 209.546875 211.847656 209.808594 211.609375 210.179688 C 211.375 210.550781 211.277344 210.957031 211.316406 211.394531 C 211.472656 212.882812 215.210938 247.746094 235.410156 258.316406 C 241.808594 261.675781 249.074219 262.203125 257.136719 259.925781 C 261.105469 258.757812 264.894531 257.15625 268.5 255.121094 C 276.761719 250.578125 282.167969 243.949219 284.574219 235.382812 C 290.46875 214.453125 276.429688 189.464844 275.832031 188.414062 C 275.71875 188.222656 275.574219 188.054688 275.402344 187.910156 C 275.226562 187.769531 275.035156 187.660156 274.824219 187.585938 C 274.613281 187.511719 274.394531 187.472656 274.167969 187.476562 C 273.945312 187.476562 273.726562 187.519531 273.515625 187.597656 Z M 280.878906 234.410156 C 278.757812 241.921875 273.972656 247.777344 266.644531 251.816406 C 255.164062 258.136719 245.253906 259.203125 237.207031 254.972656 C 221.035156 246.488281 216.269531 219.222656 215.332031 212.519531 L 273.25 191.796875 C 276.0625 197.269531 285.585938 217.703125 280.878906 234.410156 Z M 280.878906 234.410156"/><path fill="#472700" d="M 268.042969 144.566406 C 268.425781 145.457031 268.78125 146.355469 269.113281 147.261719 C 269.445312 148.167969 269.753906 149.078125 270.03125 149.992188 C 270.3125 150.90625 270.5625 151.816406 270.785156 152.730469 C 271.007812 153.640625 271.203125 154.550781 271.367188 155.453125 C 271.535156 156.355469 271.671875 157.246094 271.777344 158.128906 C 271.882812 159.015625 271.957031 159.882812 272.003906 160.742188 C 272.050781 161.597656 272.066406 162.4375 272.050781 163.257812 C 272.035156 164.078125 271.988281 164.875 271.914062 165.65625 C 271.835938 166.433594 271.730469 167.183594 271.597656 167.910156 C 271.460938 168.636719 271.296875 169.335938 271.101562 170.003906 C 270.90625 170.671875 270.683594 171.308594 270.433594 171.914062 C 270.179688 172.519531 269.902344 173.089844 269.597656 173.621094 C 269.292969 174.15625 268.960938 174.652344 268.601562 175.113281 C 268.246094 175.570312 267.863281 175.992188 267.460938 176.371094 C 267.054688 176.75 266.628906 177.089844 266.179688 177.382812 C 265.730469 177.679688 265.261719 177.933594 264.769531 178.144531 C 264.28125 178.351562 263.777344 178.519531 263.25 178.640625 C 262.726562 178.761719 262.1875 178.839844 261.636719 178.871094 C 261.082031 178.90625 260.515625 178.890625 259.9375 178.835938 C 259.355469 178.777344 258.769531 178.675781 258.171875 178.527344 C 257.574219 178.382812 256.96875 178.191406 256.359375 177.957031 C 255.746094 177.722656 255.132812 177.445312 254.511719 177.125 C 253.894531 176.808594 253.273438 176.445312 252.65625 176.042969 C 252.035156 175.640625 251.417969 175.199219 250.800781 174.71875 C 250.1875 174.238281 249.574219 173.722656 248.96875 173.167969 C 248.363281 172.613281 247.765625 172.023438 247.179688 171.398438 C 246.589844 170.777344 246.011719 170.121094 245.445312 169.4375 C 244.878906 168.75 244.324219 168.039062 243.785156 167.296875 C 243.242188 166.554688 242.71875 165.789062 242.214844 164.996094 C 241.707031 164.207031 241.21875 163.398438 240.746094 162.566406 C 240.277344 161.734375 239.828125 160.886719 239.402344 160.019531 C 238.972656 159.15625 238.570312 158.277344 238.1875 157.386719 C 237.804688 156.5 237.449219 155.601562 237.117188 154.695312 C 236.785156 153.789062 236.480469 152.878906 236.199219 151.964844 C 235.921875 151.050781 235.667969 150.140625 235.445312 149.226562 C 235.222656 148.3125 235.027344 147.40625 234.863281 146.503906 C 234.699219 145.601562 234.5625 144.710938 234.457031 143.824219 C 234.347656 142.941406 234.273438 142.070312 234.226562 141.214844 C 234.183594 140.359375 234.167969 139.519531 234.179688 138.699219 C 234.195312 137.878906 234.242188 137.078125 234.316406 136.300781 C 234.394531 135.523438 234.5 134.773438 234.636719 134.046875 C 234.769531 133.320312 234.9375 132.621094 235.128906 131.953125 C 235.324219 131.285156 235.546875 130.648438 235.800781 130.042969 C 236.050781 129.4375 236.328125 128.867188 236.632812 128.332031 C 236.941406 127.800781 237.269531 127.300781 237.628906 126.84375 C 237.984375 126.382812 238.367188 125.964844 238.773438 125.585938 C 239.175781 125.207031 239.605469 124.867188 240.054688 124.570312 C 240.503906 124.277344 240.972656 124.023438 241.460938 123.8125 C 241.949219 123.601562 242.457031 123.4375 242.980469 123.316406 C 243.503906 123.195312 244.042969 123.117188 244.597656 123.085938 C 245.152344 123.050781 245.71875 123.0625 246.296875 123.121094 C 246.875 123.179688 247.460938 123.28125 248.058594 123.425781 C 248.660156 123.574219 249.261719 123.765625 249.875 124 C 250.484375 124.234375 251.101562 124.511719 251.71875 124.828125 C 252.335938 125.148438 252.957031 125.511719 253.578125 125.914062 C 254.195312 126.316406 254.816406 126.757812 255.429688 127.238281 C 256.046875 127.71875 256.65625 128.234375 257.261719 128.789062 C 257.867188 129.34375 258.464844 129.933594 259.054688 130.554688 C 259.640625 131.179688 260.21875 131.832031 260.789062 132.519531 C 261.355469 133.203125 261.90625 133.917969 262.449219 134.660156 C 262.988281 135.402344 263.511719 136.167969 264.019531 136.957031 C 264.527344 137.75 265.015625 138.558594 265.484375 139.390625 C 265.953125 140.222656 266.402344 141.070312 266.832031 141.9375 C 267.257812 142.800781 267.664062 143.679688 268.042969 144.566406 Z M 268.042969 144.566406"/><path fill="#472700" d="M 216.066406 166.886719 C 216.449219 167.777344 216.804688 168.675781 217.136719 169.582031 C 217.46875 170.488281 217.773438 171.394531 218.054688 172.308594 C 218.332031 173.222656 218.582031 174.136719 218.804688 175.046875 C 219.03125 175.960938 219.222656 176.867188 219.390625 177.769531 C 219.554688 178.671875 219.691406 179.566406 219.796875 180.449219 C 219.902344 181.332031 219.980469 182.203125 220.027344 183.058594 C 220.070312 183.914062 220.085938 184.753906 220.070312 185.574219 C 220.054688 186.394531 220.011719 187.195312 219.933594 187.972656 C 219.859375 188.75 219.753906 189.503906 219.617188 190.230469 C 219.480469 190.957031 219.316406 191.652344 219.121094 192.324219 C 218.929688 192.992188 218.707031 193.628906 218.453125 194.234375 C 218.203125 194.835938 217.925781 195.40625 217.617188 195.941406 C 217.3125 196.476562 216.980469 196.972656 216.625 197.433594 C 216.265625 197.890625 215.886719 198.308594 215.480469 198.691406 C 215.078125 199.070312 214.648438 199.40625 214.199219 199.703125 C 213.75 200 213.28125 200.253906 212.792969 200.460938 C 212.304688 200.671875 211.796875 200.839844 211.273438 200.960938 C 210.75 201.082031 210.210938 201.160156 209.65625 201.191406 C 209.101562 201.222656 208.535156 201.210938 207.957031 201.152344 C 207.378906 201.097656 206.789062 200.996094 206.191406 200.847656 C 205.59375 200.703125 204.992188 200.511719 204.378906 200.277344 C 203.769531 200.042969 203.152344 199.765625 202.535156 199.445312 C 201.914062 199.125 201.296875 198.765625 200.675781 198.363281 C 200.054688 197.960938 199.4375 197.519531 198.824219 197.039062 C 198.207031 196.558594 197.597656 196.039062 196.992188 195.484375 C 196.386719 194.929688 195.789062 194.34375 195.199219 193.71875 C 194.609375 193.097656 194.03125 192.441406 193.464844 191.757812 C 192.898438 191.070312 192.34375 190.355469 191.804688 189.613281 C 191.265625 188.875 190.742188 188.109375 190.234375 187.316406 C 189.726562 186.527344 189.238281 185.714844 188.769531 184.882812 C 188.300781 184.050781 187.851562 183.203125 187.421875 182.339844 C 186.996094 181.472656 186.589844 180.597656 186.207031 179.707031 C 185.828125 178.816406 185.46875 177.917969 185.136719 177.015625 C 184.804688 176.109375 184.5 175.199219 184.222656 174.285156 C 183.941406 173.371094 183.691406 172.457031 183.46875 171.546875 C 183.246094 170.632812 183.050781 169.726562 182.882812 168.824219 C 182.71875 167.921875 182.582031 167.027344 182.476562 166.144531 C 182.371094 165.261719 182.292969 164.390625 182.25 163.535156 C 182.203125 162.679688 182.1875 161.839844 182.203125 161.019531 C 182.21875 160.199219 182.261719 159.398438 182.339844 158.621094 C 182.414062 157.84375 182.519531 157.089844 182.65625 156.363281 C 182.792969 155.636719 182.957031 154.941406 183.152344 154.269531 C 183.347656 153.601562 183.570312 152.964844 183.820312 152.359375 C 184.070312 151.757812 184.351562 151.1875 184.65625 150.652344 C 184.960938 150.117188 185.292969 149.621094 185.648438 149.164062 C 186.007812 148.703125 186.386719 148.285156 186.792969 147.90625 C 187.199219 147.523438 187.625 147.1875 188.074219 146.890625 C 188.523438 146.59375 188.992188 146.339844 189.480469 146.132812 C 189.96875 145.921875 190.476562 145.757812 191 145.632812 C 191.523438 145.511719 192.0625 145.433594 192.617188 145.402344 C 193.171875 145.371094 193.738281 145.382812 194.316406 145.441406 C 194.894531 145.5 195.484375 145.601562 196.082031 145.746094 C 196.679688 145.894531 197.285156 146.082031 197.894531 146.316406 C 198.507812 146.550781 199.121094 146.828125 199.738281 147.148438 C 200.359375 147.46875 200.976562 147.828125 201.597656 148.230469 C 202.21875 148.632812 202.835938 149.074219 203.453125 149.554688 C 204.066406 150.035156 204.679688 150.554688 205.28125 151.109375 C 205.886719 151.664062 206.484375 152.25 207.074219 152.875 C 207.664062 153.5 208.242188 154.152344 208.808594 154.839844 C 209.375 155.523438 209.929688 156.238281 210.46875 156.980469 C 211.007812 157.722656 211.53125 158.488281 212.039062 159.277344 C 212.546875 160.066406 213.035156 160.878906 213.503906 161.710938 C 213.976562 162.542969 214.425781 163.390625 214.851562 164.253906 C 215.28125 165.121094 215.683594 165.996094 216.066406 166.886719 Z M 216.066406 166.886719"/><path fill="#FFF" d="M 260.695312 135.28125 C 260.960938 135.820312 261.183594 136.367188 261.375 136.929688 C 261.5625 137.492188 261.710938 138.054688 261.820312 138.617188 C 261.929688 139.179688 262 139.730469 262.023438 140.273438 C 262.046875 140.8125 262.03125 141.335938 261.96875 141.835938 C 261.910156 142.335938 261.808594 142.804688 261.664062 143.246094 C 261.523438 143.6875 261.339844 144.085938 261.121094 144.449219 C 260.898438 144.8125 260.644531 145.128906 260.355469 145.398438 C 260.066406 145.667969 259.746094 145.890625 259.398438 146.058594 C 259.050781 146.226562 258.683594 146.34375 258.289062 146.402344 C 257.898438 146.464844 257.492188 146.46875 257.070312 146.417969 C 256.652344 146.371094 256.222656 146.265625 255.789062 146.105469 C 255.355469 145.949219 254.921875 145.738281 254.492188 145.476562 C 254.058594 145.214844 253.640625 144.90625 253.226562 144.554688 C 252.816406 144.199219 252.425781 143.804688 252.050781 143.375 C 251.675781 142.941406 251.324219 142.476562 251 141.980469 C 250.675781 141.484375 250.382812 140.96875 250.121094 140.429688 C 249.855469 139.890625 249.632812 139.339844 249.441406 138.78125 C 249.253906 138.21875 249.105469 137.65625 248.996094 137.09375 C 248.886719 136.53125 248.820312 135.980469 248.792969 135.4375 C 248.769531 134.894531 248.785156 134.375 248.847656 133.875 C 248.90625 133.375 249.007812 132.902344 249.152344 132.464844 C 249.292969 132.023438 249.476562 131.621094 249.695312 131.261719 C 249.917969 130.898438 250.171875 130.582031 250.460938 130.3125 C 250.75 130.039062 251.070312 129.820312 251.417969 129.652344 C 251.765625 129.480469 252.132812 129.367188 252.527344 129.304688 C 252.917969 129.246094 253.324219 129.238281 253.746094 129.289062 C 254.167969 129.339844 254.59375 129.445312 255.027344 129.601562 C 255.460938 129.761719 255.894531 129.972656 256.324219 130.234375 C 256.757812 130.496094 257.175781 130.800781 257.589844 131.15625 C 258 131.511719 258.390625 131.902344 258.765625 132.335938 C 259.140625 132.769531 259.492188 133.234375 259.816406 133.730469 C 260.140625 134.222656 260.433594 134.742188 260.695312 135.28125 Z M 260.695312 135.28125"/><path fill="#FFF" d="M 209.425781 159.195312 C 209.6875 159.734375 209.910156 160.285156 210.101562 160.847656 C 210.289062 161.40625 210.441406 161.96875 210.550781 162.53125 C 210.660156 163.09375 210.726562 163.644531 210.75 164.1875 C 210.773438 164.730469 210.757812 165.25 210.699219 165.75 C 210.636719 166.25 210.535156 166.722656 210.390625 167.160156 C 210.25 167.601562 210.066406 168.003906 209.847656 168.363281 C 209.625 168.726562 209.371094 169.042969 209.082031 169.316406 C 208.792969 169.585938 208.472656 169.804688 208.125 169.976562 C 207.78125 170.144531 207.410156 170.257812 207.019531 170.320312 C 206.625 170.378906 206.21875 170.386719 205.796875 170.335938 C 205.378906 170.285156 204.949219 170.179688 204.515625 170.023438 C 204.082031 169.863281 203.648438 169.652344 203.21875 169.390625 C 202.785156 169.132812 202.367188 168.824219 201.957031 168.46875 C 201.542969 168.117188 201.152344 167.722656 200.777344 167.289062 C 200.402344 166.855469 200.050781 166.390625 199.726562 165.894531 C 199.402344 165.402344 199.109375 164.882812 198.847656 164.34375 C 198.585938 163.808594 198.359375 163.257812 198.167969 162.695312 C 197.980469 162.132812 197.832031 161.570312 197.722656 161.007812 C 197.613281 160.449219 197.546875 159.894531 197.519531 159.351562 C 197.496094 158.8125 197.511719 158.289062 197.574219 157.789062 C 197.632812 157.289062 197.734375 156.820312 197.878906 156.378906 C 198.023438 155.941406 198.203125 155.539062 198.425781 155.175781 C 198.644531 154.8125 198.898438 154.496094 199.1875 154.226562 C 199.480469 153.957031 199.796875 153.734375 200.144531 153.566406 C 200.492188 153.398438 200.859375 153.28125 201.253906 153.222656 C 201.644531 153.160156 202.050781 153.15625 202.472656 153.207031 C 202.894531 153.253906 203.320312 153.359375 203.753906 153.519531 C 204.191406 153.675781 204.621094 153.886719 205.054688 154.148438 C 205.484375 154.410156 205.90625 154.71875 206.316406 155.070312 C 206.726562 155.425781 207.121094 155.820312 207.496094 156.253906 C 207.871094 156.683594 208.21875 157.148438 208.542969 157.644531 C 208.867188 158.140625 209.164062 158.65625 209.425781 159.195312 Z M 209.425781 159.195312"/></svg>